<?xml version="1.0" standalone="no"?>
<!DOCTYPE svg PUBLIC "-//W3C//DTD SVG 1.1//EN" "http://www.w3.org/Graphics/SVG/1.1/DTD/svg11.dtd" >
<svg>
<metadata>
Created by FontForge 20110222 at Wed Dec  3 17:34:12 2014
 By deploy user
</metadata>
<defs>
<font id="Interstate-Bold" horiz-adv-x="1638" >
  <font-face 
    font-family="Interstate Bold"
    font-weight="400"
    font-stretch="normal"
    units-per-em="2048"
    panose-1="2 0 5 3 3 0 0 2 0 4"
    ascent="1638"
    descent="-410"
    x-height="1075"
    cap-height="1434"
    bbox="-127 -395 2836 1863"
    underline-thickness="41"
    underline-position="-232"
    unicode-range="U+0020-FB02"
  />
<missing-glyph horiz-adv-x="594" 
 />
    <glyph glyph-name=".notdef" horiz-adv-x="594" 
 />
    <glyph glyph-name="NUL" horiz-adv-x="0" 
 />
    <glyph glyph-name="nonmarkingreturn" horiz-adv-x="594" 
 />
    <glyph glyph-name="space" unicode=" " horiz-adv-x="594" 
 />
    <glyph glyph-name="lslash" unicode="&#x142;" horiz-adv-x="659" 
d="M588 723l-119 -82v-641h-279v489l-118 -81v276l118 82v586l279 141v-578l119 84v-276z" />
    <glyph glyph-name="Scaron" unicode="&#x160;" horiz-adv-x="1354" 
d="M1235 434q0 -102 -33 -186t-102 -144.5t-175 -93.5t-253 -33q-90 0 -173 18.5t-155 52t-130.5 82t-98.5 108.5l207 184q75 -88 169 -126t197 -38q128 0 189 37t61 119q0 34 -12 60.5t-46.5 48.5t-97 42t-164.5 43q-99 23 -181.5 53t-141.5 78t-92 119.5t-33 177.5
q0 97 40 175t109.5 132.5t163 83.5t199.5 29q167 0 294 -59.5t228 -165.5l-207 -201q-69 71 -147.5 109.5t-177.5 38.5q-58 0 -97 -11.5t-63 -29.5t-34.5 -41t-10.5 -47q0 -34 13 -58t46 -42.5t88.5 -35t141.5 -36.5q57 -14 114.5 -30t110.5 -39.5t99.5 -55.5t81 -77
t54 -104t19.5 -137zM1071 1863l-250 -327h-286l-250 327h190l205 -153l205 153h186z" />
    <glyph glyph-name="scaron" unicode="&#x161;" horiz-adv-x="1100" 
d="M987 313q0 -93 -34.5 -157t-94 -103.5t-139 -57.5t-170.5 -18q-64 0 -126 9t-120 25.5t-110 39.5t-95 51l95 215q86 -48 177.5 -73t194.5 -25q42 0 69.5 5t44 15.5t23.5 25.5t7 36q0 18 -8 32.5t-26.5 27t-48.5 24.5t-75 25q-97 29 -175 58t-133.5 69.5t-85.5 98
t-30 142.5q0 84 31.5 144.5t88.5 99.5t136 57.5t174 18.5q102 0 206.5 -28.5t190.5 -76.5l-90 -223q-80 43 -162.5 64.5t-150.5 21.5q-43 0 -71 -4t-44.5 -13t-23 -22t-6.5 -31q0 -17 8 -30t32 -26t67.5 -29t115.5 -39q72 -24 137 -51.5t114 -66.5t78 -94.5t29 -136.5z
M928 1546l-250 -327h-286l-250 327h190l205 -153l205 153h186z" />
    <glyph glyph-name="Yacute" unicode="&#xdd;" horiz-adv-x="1462" 
d="M1417 1434l-543 -867v-567h-286v561l-543 873h330l203 -340q19 -32 42 -72.5t45 -80.5t40 -74t28 -54q10 20 28 53.5t40 73t45 80t43 74.5l203 340h325zM1104 1833l-297 -327h-239l178 327h358z" />
    <glyph glyph-name="yacute" unicode="&#xfd;" horiz-adv-x="1208" 
d="M1157 1075l-553 -1454h-278l143 379l-418 1075h311l177 -518q10 -31 20.5 -64.5t20 -65t16.5 -59t12 -46.5q5 20 12.5 47.5t16.5 58.5t19.5 64t21.5 65l176 518h303zM973 1527l-297 -327h-239l178 327h358z" />
    <glyph glyph-name="Thorn" unicode="&#xde;" horiz-adv-x="1393" 
d="M1305 758q0 -125 -39.5 -214t-109 -146t-164.5 -84t-206 -27h-315v-287h-287v1434h287v-222h340q101 0 191 -28t157.5 -84.5t106.5 -142t39 -199.5zM1010 752q0 94 -57 138t-152 44h-330v-369h334q100 0 152.5 46.5t52.5 140.5z" />
    <glyph glyph-name="thorn" unicode="&#xfe;" horiz-adv-x="1151" 
d="M1065 524q0 -120 -28 -220.5t-81.5 -173t-131 -113t-177.5 -40.5q-71 0 -130 24.5t-97 59.5v-315l-283 -141v1747l283 141v-485q20 18 43.5 34t51.5 28.5t61 20t71 7.5q86 0 162 -33t133 -103t90 -178.5t33 -259.5zM778 518q0 83 -13 142t-37 97t-58 56t-76 18
q-33 0 -58.5 -6.5t-46 -18.5t-37.5 -28.5t-32 -36.5v-405q66 -92 190 -92q82 0 125 69t43 205z" />
    <glyph glyph-name="Zcaron" unicode="&#x17d;" horiz-adv-x="1409" 
d="M1270 0h-1131v254l617 735q17 21 39.5 47.5t45.5 53t44 49.5t35 37q-22 -1 -58.5 -2t-77.5 -1.5t-82.5 -1t-72.5 -0.5h-449v263h1080v-254l-611 -736q-17 -21 -39.5 -47.5t-45.5 -52.5t-44 -49t-35 -37q22 1 58 1.5t77.5 1t82.5 1t73 0.5h494v-262zM1093 1853l-250 -327
h-286l-250 327h190l205 -153l205 153h186z" />
    <glyph glyph-name="zcaron" unicode="&#x17e;" horiz-adv-x="1135" 
d="M1012 0h-889v205l391 465q16 19 35 41t38 43t35 39t27 30q-15 -1 -36.5 -1.5t-46 -1l-49 -1t-44.5 -0.5h-315v256h854v-205l-379 -464q-16 -20 -35 -42t-37 -43t-34.5 -39t-26.5 -30q15 1 36.5 1.5t46 1l49 1t44.5 0.5h336v-256zM975 1546l-250 -327h-286l-250 327h190
l205 -153l205 153h186z" />
    <glyph glyph-name="onehalf" unicode="&#xbd;" 
d="M1597 717l-344 -271q-18 -9 -33.5 -9t-23.5 5q-20 13 -25.5 29.5t0.5 44.5l41 92h-288v-254l98 39q23 10 39 4t29 -26q5 -8 6 -24.5t-13 -33.5l-264 -344l-270 344q-9 17 -9 33.5t5 24.5q12 18 28.5 24t42.5 -2l95 -39v254h-285l41 -94q14 -47 -25 -72q-8 -5 -23 -5
t-32 9l-346 271l346 264q17 14 32 12.5t23 -6.5q22 -12 26.5 -28t-1.5 -39l-41 -99h285v258l-95 -39q-24 -11 -41.5 -3.5t-29.5 26.5q-5 8 -5 24t9 33l270 344l264 -344q14 -17 13 -33t-6 -24q-13 -20 -29 -26t-39 3l-98 39v-258h288l-41 99q-6 23 -1.5 39t26.5 28
q8 5 22.5 5.5t34.5 -11.5z" />
    <glyph glyph-name="onequarter" unicode="&#xbc;" 
d="M1597 717l-344 -271q-18 -9 -33.5 -9t-23.5 5q-20 13 -25.5 29.5t0.5 44.5l41 92h-288v-254l98 39q23 10 39 4t29 -26q5 -8 6 -24.5t-13 -33.5l-264 -344l-270 344q-9 17 -9 33.5t5 24.5q12 18 28.5 24t42.5 -2l95 -39v254h-285l41 -94q14 -47 -25 -72q-8 -5 -23 -5
t-32 9l-346 271l346 264q17 14 32 12.5t23 -6.5q22 -12 26.5 -28t-1.5 -39l-41 -99h285v258l-95 -39q-24 -11 -41.5 -3.5t-29.5 26.5q-5 8 -5 24t9 33l270 344l264 -344q14 -17 13 -33t-6 -24q-13 -20 -29 -26t-39 3l-98 39v-258h288l-41 99q-6 23 -1.5 39t26.5 28
q8 5 22.5 5.5t34.5 -11.5z" />
    <glyph glyph-name="onesuperior" unicode="&#xb9;" 
d="M1597 717l-344 -271q-18 -9 -33.5 -9t-23.5 5q-20 13 -25.5 29.5t0.5 44.5l41 92h-288v-254l98 39q23 10 39 4t29 -26q5 -8 6 -24.5t-13 -33.5l-264 -344l-270 344q-9 17 -9 33.5t5 24.5q12 18 28.5 24t42.5 -2l95 -39v254h-285l41 -94q14 -47 -25 -72q-8 -5 -23 -5
t-32 9l-346 271l346 264q17 14 32 12.5t23 -6.5q22 -12 26.5 -28t-1.5 -39l-41 -99h285v258l-95 -39q-24 -11 -41.5 -3.5t-29.5 26.5q-5 8 -5 24t9 33l270 344l264 -344q14 -17 13 -33t-6 -24q-13 -20 -29 -26t-39 3l-98 39v-258h288l-41 99q-6 23 -1.5 39t26.5 28
q8 5 22.5 5.5t34.5 -11.5z" />
    <glyph glyph-name="threequarters" unicode="&#xbe;" 
d="M1597 717l-344 -271q-18 -9 -33.5 -9t-23.5 5q-20 13 -25.5 29.5t0.5 44.5l41 92h-288v-254l98 39q23 10 39 4t29 -26q5 -8 6 -24.5t-13 -33.5l-264 -344l-270 344q-9 17 -9 33.5t5 24.5q12 18 28.5 24t42.5 -2l95 -39v254h-285l41 -94q14 -47 -25 -72q-8 -5 -23 -5
t-32 9l-346 271l346 264q17 14 32 12.5t23 -6.5q22 -12 26.5 -28t-1.5 -39l-41 -99h285v258l-95 -39q-24 -11 -41.5 -3.5t-29.5 26.5q-5 8 -5 24t9 33l270 344l264 -344q14 -17 13 -33t-6 -24q-13 -20 -29 -26t-39 3l-98 39v-258h288l-41 99q-6 23 -1.5 39t26.5 28
q8 5 22.5 5.5t34.5 -11.5z" />
    <glyph glyph-name="threesuperior" unicode="&#xb3;" 
d="M1597 717l-344 -271q-18 -9 -33.5 -9t-23.5 5q-20 13 -25.5 29.5t0.5 44.5l41 92h-288v-254l98 39q23 10 39 4t29 -26q5 -8 6 -24.5t-13 -33.5l-264 -344l-270 344q-9 17 -9 33.5t5 24.5q12 18 28.5 24t42.5 -2l95 -39v254h-285l41 -94q14 -47 -25 -72q-8 -5 -23 -5
t-32 9l-346 271l346 264q17 14 32 12.5t23 -6.5q22 -12 26.5 -28t-1.5 -39l-41 -99h285v258l-95 -39q-24 -11 -41.5 -3.5t-29.5 26.5q-5 8 -5 24t9 33l270 344l264 -344q14 -17 13 -33t-6 -24q-13 -20 -29 -26t-39 3l-98 39v-258h288l-41 99q-6 23 -1.5 39t26.5 28
q8 5 22.5 5.5t34.5 -11.5z" />
    <glyph glyph-name="twosuperior" unicode="&#xb2;" 
d="M1597 717l-344 -271q-18 -9 -33.5 -9t-23.5 5q-20 13 -25.5 29.5t0.5 44.5l41 92h-288v-254l98 39q23 10 39 4t29 -26q5 -8 6 -24.5t-13 -33.5l-264 -344l-270 344q-9 17 -9 33.5t5 24.5q12 18 28.5 24t42.5 -2l95 -39v254h-285l41 -94q14 -47 -25 -72q-8 -5 -23 -5
t-32 9l-346 271l346 264q17 14 32 12.5t23 -6.5q22 -12 26.5 -28t-1.5 -39l-41 -99h285v258l-95 -39q-24 -11 -41.5 -3.5t-29.5 26.5q-5 8 -5 24t9 33l270 344l264 -344q14 -17 13 -33t-6 -24q-13 -20 -29 -26t-39 3l-98 39v-258h288l-41 99q-6 23 -1.5 39t26.5 28
q8 5 22.5 5.5t34.5 -11.5z" />
    <glyph glyph-name="brokenbar" unicode="&#xa6;" 
d="M1597 717l-344 -271q-18 -9 -33.5 -9t-23.5 5q-20 13 -25.5 29.5t0.5 44.5l41 92h-288v-254l98 39q23 10 39 4t29 -26q5 -8 6 -24.5t-13 -33.5l-264 -344l-270 344q-9 17 -9 33.5t5 24.5q12 18 28.5 24t42.5 -2l95 -39v254h-285l41 -94q14 -47 -25 -72q-8 -5 -23 -5
t-32 9l-346 271l346 264q17 14 32 12.5t23 -6.5q22 -12 26.5 -28t-1.5 -39l-41 -99h285v258l-95 -39q-24 -11 -41.5 -3.5t-29.5 26.5q-5 8 -5 24t9 33l270 344l264 -344q14 -17 13 -33t-6 -24q-13 -20 -29 -26t-39 3l-98 39v-258h288l-41 99q-6 23 -1.5 39t26.5 28
q8 5 22.5 5.5t34.5 -11.5z" />
    <glyph glyph-name="minus" unicode="&#x2212;" 
d="M1597 717l-344 -271q-18 -9 -33.5 -9t-23.5 5q-20 13 -25.5 29.5t0.5 44.5l41 92h-288v-254l98 39q23 10 39 4t29 -26q5 -8 6 -24.5t-13 -33.5l-264 -344l-270 344q-9 17 -9 33.5t5 24.5q12 18 28.5 24t42.5 -2l95 -39v254h-285l41 -94q14 -47 -25 -72q-8 -5 -23 -5
t-32 9l-346 271l346 264q17 14 32 12.5t23 -6.5q22 -12 26.5 -28t-1.5 -39l-41 -99h285v258l-95 -39q-24 -11 -41.5 -3.5t-29.5 26.5q-5 8 -5 24t9 33l270 344l264 -344q14 -17 13 -33t-6 -24q-13 -20 -29 -26t-39 3l-98 39v-258h288l-41 99q-6 23 -1.5 39t26.5 28
q8 5 22.5 5.5t34.5 -11.5z" />
    <glyph glyph-name="multiply" unicode="&#xd7;" 
d="M1597 717l-344 -271q-18 -9 -33.5 -9t-23.5 5q-20 13 -25.5 29.5t0.5 44.5l41 92h-288v-254l98 39q23 10 39 4t29 -26q5 -8 6 -24.5t-13 -33.5l-264 -344l-270 344q-9 17 -9 33.5t5 24.5q12 18 28.5 24t42.5 -2l95 -39v254h-285l41 -94q14 -47 -25 -72q-8 -5 -23 -5
t-32 9l-346 271l346 264q17 14 32 12.5t23 -6.5q22 -12 26.5 -28t-1.5 -39l-41 -99h285v258l-95 -39q-24 -11 -41.5 -3.5t-29.5 26.5q-5 8 -5 24t9 33l270 344l264 -344q14 -17 13 -33t-6 -24q-13 -20 -29 -26t-39 3l-98 39v-258h288l-41 99q-6 23 -1.5 39t26.5 28
q8 5 22.5 5.5t34.5 -11.5z" />
    <glyph glyph-name="Lslash" unicode="&#x141;" horiz-adv-x="1300" 
d="M1221 0h-1006v483l-133 -102v276l133 103v674h283v-498l237 176v-276l-237 -177v-376h723v-283z" />
    <glyph glyph-name="exclam" unicode="!" horiz-adv-x="696" 
d="M492 844l-48 -393h-192l-47 393v590h287v-590zM522 152q0 -36 -14 -67.5t-38 -55.5t-55.5 -38t-66.5 -14t-66.5 14t-55.5 38t-38 55.5t-14 67.5q0 35 14 66.5t38 55.5t55.5 38t66.5 14t66.5 -14t55.5 -38t38 -55.5t14 -66.5z" />
    <glyph glyph-name="quotedbl" unicode="&#x22;" horiz-adv-x="1081" 
d="M965 1434l-72 -670h-195l-71 670h338zM455 1434l-72 -670h-195l-71 670h338z" />
    <glyph glyph-name="numbersign" unicode="#" horiz-adv-x="1516" 
d="M1413 287h-246v-287h-249v287h-320v-287h-250v287h-246v235h246v389h-246v236h246v287h250v-287h320v287h249v-287h246v-236h-246v-389h246v-235zM918 522v389h-320v-389h320z" />
    <glyph glyph-name="dollar" unicode="$" horiz-adv-x="1341" 
d="M1229 434q0 -87 -24 -160t-73.5 -129t-126.5 -93.5t-182 -53.5v-203h-286v203q-69 11 -132.5 33t-118 54t-99.5 73t-78 90l206 184q76 -88 170 -126t197 -38q128 0 189 32t61 114q0 34 -12 60.5t-46.5 48.5t-97 42t-164.5 43q-99 23 -181.5 53t-141.5 78t-92 119.5
t-33 177.5q0 81 28 147.5t78 117t118 84.5t149 49v204h286v-206q115 -22 206 -76t169 -135l-207 -201q-69 71 -147.5 109t-177.5 38q-58 0 -97 -9.5t-63 -26t-34.5 -37.5t-10.5 -45q0 -34 13 -58t46 -42.5t88.5 -35t141.5 -36.5q57 -14 114.5 -30t110.5 -39.5t99.5 -55.5
t81 -77t54 -104t19.5 -137z" />
    <glyph glyph-name="percent" unicode="%" horiz-adv-x="2046" 
d="M834 1012q0 -102 -28.5 -185t-79.5 -141t-121 -89.5t-152 -31.5q-83 0 -151.5 31t-118.5 88.5t-77.5 139.5t-27.5 184q0 103 27.5 186t78 141.5t120 89.5t153.5 31q85 0 154.5 -31t119 -89t76.5 -140t27 -184zM1585 1434l-878 -1434h-248l878 1434h248zM1968 424
q0 -102 -28.5 -184.5t-79.5 -141t-121 -90t-152 -31.5t-151 31t-118.5 88.5t-77.5 139.5t-28 184q0 103 28 186t78 141.5t119.5 89.5t153.5 31q85 0 155 -31t119 -89t76 -140t27 -184zM604 1008q0 128 -37.5 193t-111.5 65q-148 0 -148 -254q0 -128 37.5 -193t112.5 -65
q73 0 110 68.5t37 185.5zM1739 420q0 128 -37.5 193t-112.5 65q-147 0 -147 -254q0 -128 37.5 -193t111.5 -65t111 68.5t37 185.5z" />
    <glyph glyph-name="ampersand" unicode="&#x26;" horiz-adv-x="1434" 
d="M1409 0h-328l-108 117q-85 -69 -188 -104.5t-230 -35.5q-110 0 -197.5 23t-148 70.5t-93 119t-32.5 168.5q0 75 20 136.5t58 111.5t92.5 90t122.5 74l-37 41q-57 63 -91 133.5t-34 157.5t32.5 153.5t89.5 111t135 67t169 22.5q66 0 122 -10t107 -28.5t99.5 -46.5
t99.5 -64l-137 -207q-71 54 -146.5 78t-152.5 24q-63 0 -99 -24.5t-36 -69.5q0 -46 20.5 -80.5t54.5 -75.5l396 -450q48 98 100 237l231 -73q-34 -106 -73.5 -195t-87.5 -164zM809 295l-281 307q-84 -44 -120.5 -99.5t-36.5 -119.5q0 -69 54 -110.5t163 -41.5q133 0 221 64z
" />
    <glyph glyph-name="quotesingle" unicode="'" horiz-adv-x="582" 
d="M465 1434l-72 -670h-205l-71 670h348z" />
    <glyph glyph-name="parenleft" unicode="(" horiz-adv-x="758" 
d="M670 -98l-185 -127q-74 81 -138.5 169t-112.5 189t-75.5 219.5t-27.5 261.5q0 144 26 262.5t72.5 220.5t112 192t143.5 177l185 -127q-55 -71 -100 -147t-77 -163t-49.5 -187t-17.5 -217q0 -121 17.5 -222t49 -189t76.5 -164.5t101 -147.5z" />
    <glyph glyph-name="parenright" unicode=")" horiz-adv-x="758" 
d="M627 627q0 -144 -26 -262.5t-73 -220.5t-112.5 -192t-143.5 -177l-184 127q54 70 99 146.5t77.5 163.5t50 187t17.5 217q0 121 -17.5 222t-49 189t-77 164.5t-100.5 147.5l184 127q74 -81 138.5 -169t112.5 -189t76 -219.5t28 -261.5z" />
    <glyph glyph-name="asterisk" unicode="*" horiz-adv-x="1024" 
d="M956 850l-108 -186l-250 167l23 -299h-218l21 304l-250 -168l-106 184l288 131l-288 133l106 187l250 -170l-21 301h218l-23 -299l250 170l108 -187l-294 -133z" />
    <glyph glyph-name="plus" unicode="+" horiz-adv-x="1255" 
d="M1143 571h-375v-389h-281v389h-374v267h374v389h281v-389h375v-267z" />
    <glyph glyph-name="comma" unicode="," horiz-adv-x="557" 
d="M467 346l-172 -604h-193l31 604h334z" />
    <glyph glyph-name="hyphen" unicode="-" horiz-adv-x="834" 
d="M711 602h-588v283h588v-283z" />
    <glyph glyph-name="hyphen" unicode="&#xad;" horiz-adv-x="834" 
d="M711 602h-588v283h588v-283z" />
    <glyph glyph-name="period" unicode="." horiz-adv-x="557" 
d="M471 170q0 -39 -15.5 -74t-41.5 -61.5t-61 -42t-74 -15.5t-74.5 15.5t-61.5 42t-41.5 61.5t-15.5 74t15.5 74t41.5 61t61.5 41.5t74.5 15.5t74 -15.5t61 -41.5t41.5 -61t15.5 -74z" />
    <glyph glyph-name="slash" unicode="/" horiz-adv-x="963" 
d="M954 1618l-667 -1802h-279l668 1802h278z" />
    <glyph glyph-name="zero" unicode="0" horiz-adv-x="1409" 
d="M1307 721q0 -164 -39.5 -300.5t-116 -235t-189.5 -153.5t-260 -55t-259 54.5t-187.5 152t-114.5 233.5t-39 300q0 163 39 299t115.5 234t189 152t259.5 54t259 -53.5t188.5 -150.5t115.5 -232.5t39 -298.5zM1016 717q0 96 -18 179.5t-56.5 146t-98 98t-141.5 35.5
t-140.5 -35t-96 -96.5t-55 -144.5t-17.5 -179t18 -180.5t55.5 -147t96.5 -99t142 -36.5q82 0 141 35.5t96.5 98t55.5 146t18 179.5z" />
    <glyph glyph-name="one" unicode="1" horiz-adv-x="788" 
d="M610 0h-284v1036h-246v211q121 6 196 51.5t97 135.5h237v-1434z" />
    <glyph glyph-name="two" unicode="2" horiz-adv-x="1399" 
d="M1251 0h-1122q2 123 27.5 224t69.5 183.5t104.5 149t133 120.5t155 98.5t169.5 82.5q46 20 77 40.5t50 42.5t27 44t8 45q0 28 -12.5 54t-40.5 46.5t-73 33t-109 12.5t-121.5 -13.5t-108.5 -36.5t-95.5 -54.5t-82.5 -67.5l-184 215q114 115 262 176t320 61
q127 0 226 -25.5t167 -77t103.5 -129t35.5 -180.5q0 -87 -23.5 -151t-69.5 -115t-115.5 -93.5t-160.5 -84.5q-95 -44 -162.5 -84.5t-112 -80t-69.5 -78.5t-35 -81h762v-276z" />
    <glyph glyph-name="three" unicode="3" horiz-adv-x="1321" 
d="M1204 444q0 -116 -42.5 -203.5t-120.5 -146t-187.5 -88t-243.5 -29.5q-162 0 -304 65.5t-263 209.5l217 176q45 -47 89 -79.5t90 -52.5t95 -29t103 -9q142 0 209 48t67 134q0 84 -54 124t-157 40h-170v281h154q90 0 129 37t39 108q0 28 -12 54t-40 46.5t-74 33t-114 12.5
q-83 0 -151.5 -29.5t-128.5 -91.5l-209 190q51 54 105 93.5t113.5 66t127 39t147.5 12.5q110 0 206 -25.5t167.5 -76t112.5 -126.5t41 -177q0 -59 -14 -106t-37.5 -83t-53.5 -62t-61 -42q34 -13 73.5 -37t73.5 -62t56 -91t22 -124z" />
    <glyph glyph-name="four" unicode="4" horiz-adv-x="1423" 
d="M1339 293h-188v-293h-277v293h-784v258l760 883h301v-875h188v-266zM881 1106q-10 -14 -24.5 -33.5t-31.5 -41t-35 -44t-36 -43.5l-205 -239q-17 -20 -36 -41.5t-37 -42t-34.5 -37.5t-27.5 -29q18 0 53.5 0.5t76.5 1.5t82 1.5t72 0.5h176v234q0 30 1 75.5t2.5 91.5
t2.5 86t1 60z" />
    <glyph glyph-name="five" unicode="5" horiz-adv-x="1368" 
d="M1262 500q0 -129 -44 -227t-123 -163.5t-189 -99t-242 -33.5q-78 0 -149.5 8t-140 26.5t-135.5 48t-135 71.5l140 244q100 -57 205 -89t215 -32q146 0 226.5 60t80.5 175q0 56 -19 96.5t-52 66.5t-77.5 38t-95.5 12q-97 0 -164.5 -25t-118.5 -61l-272 101l49 717h955
v-277h-691l-16 -248q30 16 62 28.5t68 20.5t78 12.5t93 4.5q121 0 213 -36.5t154 -100t93.5 -150.5t31.5 -188z" />
    <glyph glyph-name="six" unicode="6" horiz-adv-x="1358" 
d="M1270 469q0 -120 -47 -211.5t-128.5 -154t-191.5 -94.5t-237 -32q-120 0 -224 34t-181 105.5t-121 181t-44 259.5q0 94 20 197.5t65 203.5t118.5 190t180.5 158.5t251 109t330 40.5v-278q-251 0 -407 -85.5t-218 -250.5q34 23 69.5 40t74.5 28t84 16.5t100 5.5
q107 0 199.5 -28t160.5 -85t107 -144t39 -206zM979 459q0 109 -75.5 161t-211.5 52q-146 0 -222.5 -51.5t-76.5 -163.5q0 -100 72.5 -156.5t212.5 -56.5q143 0 222 57.5t79 157.5z" />
    <glyph glyph-name="seven" unicode="7" horiz-adv-x="1292" 
d="M1165 1157q-109 -107 -197 -231.5t-149.5 -268t-95 -307.5t-33.5 -350h-293q0 174 28.5 334.5t82.5 306t132.5 276t178.5 244.5h-729v273h1075v-277z" />
    <glyph glyph-name="eight" unicode="8" horiz-adv-x="1438" 
d="M1319 444q0 -108 -41.5 -194.5t-119.5 -147t-189 -93t-250 -32.5t-250 31t-189 89.5t-119.5 142.5t-41.5 190q0 75 20.5 132t52.5 99t72.5 70.5t81.5 46.5q-77 42 -121.5 107t-44.5 145q0 106 42 186t114.5 133t171 80t211.5 27q106 0 203 -25t171.5 -76.5t119 -129.5
t44.5 -183q0 -77 -41 -147t-124 -117q41 -19 81.5 -48t73 -69.5t52.5 -94t20 -122.5zM971 1036q0 34 -13 65.5t-42.5 55t-78 37.5t-118.5 14q-67 0 -114.5 -13.5t-78 -37t-45 -54.5t-14.5 -65q0 -35 16 -64.5t47.5 -52t79 -35t109.5 -12.5q66 0 113.5 12t78.5 33.5
t45.5 51.5t14.5 65zM1032 434q0 98 -75 151.5t-238 53.5q-81 0 -140 -14.5t-97.5 -41t-57 -64t-18.5 -83.5q0 -49 23.5 -87.5t65 -65t99 -40.5t125.5 -14q147 0 230 53.5t83 151.5z" />
    <glyph glyph-name="nine" unicode="9" horiz-adv-x="1358" 
d="M1262 877q0 -94 -20 -197.5t-65 -203.5t-118.5 -190.5t-181 -159t-251 -109t-329.5 -40.5v279q251 0 407 85.5t218 250.5q-35 -23 -70 -40t-74.5 -28t-84.5 -16.5t-99 -5.5q-107 0 -199.5 27.5t-160.5 84.5t-107 144.5t-39 206.5q0 120 47 211.5t128.5 153.5t191.5 94
t237 32q120 0 224 -34t181 -105t121 -180.5t44 -259.5zM965 977q0 100 -72.5 156.5t-212.5 56.5q-144 0 -222.5 -57.5t-78.5 -157.5q0 -110 75.5 -161.5t211.5 -51.5q146 0 222.5 51t76.5 164z" />
    <glyph glyph-name="colon" unicode=":" horiz-adv-x="557" 
d="M471 905q0 -39 -15.5 -74t-41.5 -61t-61 -41.5t-74 -15.5t-74.5 15.5t-61.5 41.5t-41.5 61t-15.5 74t15.5 74.5t41.5 61.5t61.5 41.5t74.5 15.5t74 -15.5t61 -41.5t41.5 -61.5t15.5 -74.5zM471 170q0 -39 -15.5 -74t-41.5 -61.5t-61 -42t-74 -15.5t-74.5 15.5t-61.5 42
t-41.5 61.5t-15.5 74t15.5 74t41.5 61t61.5 41.5t74.5 15.5t74 -15.5t61 -41.5t41.5 -61t15.5 -74z" />
    <glyph glyph-name="semicolon" unicode=";" horiz-adv-x="557" 
d="M471 905q0 -39 -15.5 -74t-41.5 -61t-61 -41.5t-74 -15.5t-74.5 15.5t-61.5 41.5t-41.5 61t-15.5 74t15.5 74.5t41.5 61.5t61.5 41.5t74.5 15.5t74 -15.5t61 -41.5t41.5 -61.5t15.5 -74.5zM453 346l-172 -604h-193l31 604h334z" />
    <glyph glyph-name="less" unicode="&#x3c;" horiz-adv-x="922" 
d="M795 57l-678 551v193l678 551v-353l-383 -292l383 -295v-355z" />
    <glyph glyph-name="equal" unicode="=" horiz-adv-x="1255" 
d="M1092 815h-928v264h928v-264zM1092 330h-928v264h928v-264z" />
    <glyph glyph-name="greater" unicode="&#x3e;" horiz-adv-x="922" 
d="M805 608l-678 -551v353l383 292l-383 295v355l678 -551v-193z" />
    <glyph glyph-name="question" unicode="?" horiz-adv-x="1196" 
d="M1118 1038q0 -71 -18.5 -126t-48 -96t-66.5 -69.5t-74 -46.5q-65 -31 -106.5 -57t-66.5 -53.5t-35.5 -60.5t-12.5 -78h-280q0 73 12.5 133t45 110.5t88 94t142.5 83.5q39 18 64.5 34t40.5 33.5t21.5 38t6.5 48.5q0 35 -13.5 63t-43 47.5t-75.5 29.5t-111 10
q-59 0 -109 -13t-94 -36t-82.5 -54.5t-73.5 -68.5l-184 215q47 49 104 92t124.5 75.5t146 51t168.5 18.5q117 0 214.5 -25t167.5 -77t109 -130.5t39 -185.5zM725 152q0 -36 -14 -67.5t-38 -55.5t-55.5 -38t-66.5 -14t-66.5 14t-55.5 38t-38 55.5t-14 67.5q0 35 14 66.5
t38 55.5t55.5 38t66.5 14t66.5 -14t55.5 -38t38 -55.5t14 -66.5z" />
    <glyph glyph-name="at" unicode="@" horiz-adv-x="1712" 
d="M1595 737q0 -114 -23 -194.5t-64 -131t-98 -73.5t-124 -23q-47 0 -83 8t-64.5 22.5t-50.5 35.5t-41 47q-24 -26 -50 -47t-57.5 -36t-69.5 -23.5t-86 -8.5q-55 0 -108 17t-94.5 52t-67 88.5t-25.5 125.5q0 65 25 114t68.5 82t102 49.5t126.5 16.5q58 0 93 -11t67 -28v51
q0 47 -29.5 79t-91.5 32q-36 0 -64.5 -3t-54 -9.5t-49.5 -16.5t-51 -24l-76 135q34 20 66.5 35t67.5 25t74 15t87 5q71 0 130 -18.5t101.5 -53.5t66 -86.5t23.5 -118.5v-293q0 -29 7 -54t22 -43.5t39 -29t59 -10.5q95 0 137 79.5t42 223.5q0 122 -47 231t-130 191t-197 130
t-247 48q-134 0 -248 -47t-196.5 -129.5t-129 -196.5t-46.5 -247q0 -135 46.5 -249t129 -197t196.5 -130t248 -47q69 0 133 13t133 47l49 -109q-44 -20 -82 -33.5t-75 -21.5t-75.5 -11.5t-82.5 -3.5q-107 0 -203.5 25t-178.5 71.5t-148 113t-112.5 148.5t-71.5 178.5
t-25 203.5t25 203.5t71.5 178.5t112.5 148t148 112.5t178.5 71.5t203.5 25q109 0 206 -26t179 -73.5t148 -114t111.5 -146.5t70 -171t24.5 -188zM971 563v105q-15 8 -29.5 15t-32.5 12t-40.5 7.5t-51.5 2.5q-63 0 -96 -28t-33 -81q0 -22 7 -42.5t22.5 -36t40 -25t59.5 -9.5
q54 0 94.5 24t59.5 56z" />
    <glyph glyph-name="A" unicode="A" horiz-adv-x="1536" 
d="M1454 0h-315l-113 319h-524l-113 -319h-307l549 1434h278zM928 592l-92 260q-22 63 -41.5 123t-30.5 100q-11 -40 -30.5 -100t-41.5 -123l-92 -260h328z" />
    <glyph glyph-name="B" unicode="B" horiz-adv-x="1454" 
d="M1346 463q0 -113 -36.5 -199.5t-103.5 -145t-161 -88.5t-209 -30h-652v1434h658q104 0 188 -25t143 -73t91 -118.5t32 -162.5q0 -93 -40 -164t-111 -115q43 -19 80 -48t64 -68t42 -88.5t15 -108.5zM1006 1032q0 68 -41.5 102.5t-135.5 34.5h-364v-272h379q45 0 75.5 10
t50 27.5t28 42.5t8.5 55zM1051 459q0 93 -50 138.5t-155 45.5h-381v-371h381q105 0 155 51t50 136z" />
    <glyph glyph-name="C" unicode="C" horiz-adv-x="1372" 
d="M1270 1139l-266 -123q-39 74 -102.5 114.5t-160.5 40.5q-81 0 -143.5 -33.5t-106 -93.5t-66 -143.5t-22.5 -183.5q0 -97 23 -180t66.5 -144t106.5 -96t144 -35q48 0 87.5 10.5t73 33t62.5 56.5t58 82l242 -143q-37 -76 -88 -136t-117 -102t-147.5 -64t-178.5 -22
q-141 0 -256 52t-197.5 148t-127.5 233t-45 307q0 163 47 299t131 234t201 152t257 54q102 0 184 -23.5t146.5 -65.5t112.5 -100t82 -128z" />
    <glyph glyph-name="D" unicode="D" horiz-adv-x="1448" 
d="M1346 717q0 -126 -28.5 -228t-79.5 -182t-120.5 -137.5t-151 -95.5t-172 -56t-182.5 -18h-428v1434h449q153 0 284 -38.5t226 -123.5t149 -222t54 -333zM1051 717q0 110 -24.5 192t-76 137t-132.5 82t-195 27h-152v-876h141q113 0 195.5 31.5t136.5 89t80.5 138.5
t26.5 179z" />
    <glyph glyph-name="E" unicode="E" horiz-adv-x="1331" 
d="M1210 0h-1026v1434h996v-281h-709v-248h412v-278h-412v-346h739v-281z" />
    <glyph glyph-name="F" unicode="F" horiz-adv-x="1280" 
d="M1210 1153h-739v-270h432v-279h-432v-604h-287v1434h1026v-281z" />
    <glyph glyph-name="G" unicode="G" horiz-adv-x="1430" 
d="M1311 555q0 -138 -43.5 -246t-120 -181.5t-182.5 -112t-230 -38.5q-141 0 -256 52t-197.5 148t-127.5 233t-45 307q0 163 47 299t131 234t201 152t257 54q110 0 195.5 -25t151 -71.5t113.5 -112.5t83 -149l-272 -113q-20 40 -43.5 74t-55.5 59t-75 39t-101 14
q-81 0 -143.5 -33.5t-106 -93.5t-66 -143.5t-22.5 -183.5q0 -99 23 -183t66.5 -145.5t106.5 -96t144 -34.5q74 0 125 16.5t83.5 45.5t49.5 68.5t23 86.5h-227v268h514v-188z" />
    <glyph glyph-name="H" unicode="H" horiz-adv-x="1530" 
d="M1346 0h-287v602h-588v-602h-287v1434h287v-549h588v549h287v-1434z" />
    <glyph glyph-name="I" unicode="I" horiz-adv-x="696" 
d="M492 0h-287v1434h287v-1434z" />
    <glyph glyph-name="J" unicode="J" horiz-adv-x="1331" 
d="M1157 598q0 -141 -32 -255.5t-99 -195.5t-169 -125.5t-243 -44.5q-107 0 -196 31t-158.5 87t-118 134t-75.5 172l280 76q41 -109 102.5 -162t165.5 -53q133 0 194.5 83.5t61.5 244.5v844h287v-836z" />
    <glyph glyph-name="K" unicode="K" horiz-adv-x="1475" 
d="M1434 0h-344l-390 692l-229 -270v-422h-287v1434h287v-408q0 -20 -0.5 -51.5t-1 -65t-1 -63.5t-1.5 -47q7 12 20.5 29.5t29 37.5t32 40t31.5 38l401 490h346l-420 -496z" />
    <glyph glyph-name="L" unicode="L" horiz-adv-x="1270" 
d="M1190 0h-1006v1434h287v-1151h719v-283z" />
    <glyph glyph-name="M" unicode="M" horiz-adv-x="1710" 
d="M1526 0h-287v526q0 29 0.5 74.5t1.5 92t1.5 87.5t0.5 62q-8 -20 -19 -48.5t-24.5 -60t-28 -65t-28.5 -64.5l-291 -637l-291 637q-14 31 -28.5 64.5t-28 65t-25 60t-18.5 48.5q0 -21 0.5 -62t1.5 -87.5t1.5 -92t0.5 -74.5v-526h-281v1434h277l299 -650q14 -30 28.5 -63.5
t27.5 -66.5t24 -61.5t18 -47.5q7 20 18 48t23.5 60.5t26.5 66t28 64.5l289 650h283v-1434z" />
    <glyph glyph-name="N" unicode="N" horiz-adv-x="1530" 
d="M1346 0h-256l-527 782q-13 20 -28 43t-28.5 44.5t-25 41t-18.5 33.5q0 -20 0.5 -60t1.5 -86.5t1.5 -91.5t0.5 -75v-631h-283v1434h275l508 -758q13 -20 27.5 -42.5t28.5 -44.5t25.5 -41.5t18.5 -33.5q0 20 -0.5 60t-1.5 86.5t-1.5 91.5t-0.5 75v607h283v-1434z" />
    <glyph glyph-name="O" unicode="O" horiz-adv-x="1473" 
d="M1368 719q0 -174 -46.5 -311.5t-130 -233t-200 -146.5t-256.5 -51q-141 0 -257 50t-199 145t-129 232t-46 311t46.5 311.5t130.5 233t201 146t257 50.5t255.5 -50t198.5 -145t129 -231.5t46 -310.5zM1073 715q0 109 -25 194t-70 143t-107.5 88.5t-137.5 30.5t-137 -29.5
t-105.5 -87t-67.5 -142t-24 -193.5t25 -194t70 -143.5t107.5 -89t137.5 -30.5t137 30t105.5 87.5t67.5 142t24 193.5z" />
    <glyph glyph-name="P" unicode="P" horiz-adv-x="1393" 
d="M1305 979q0 -125 -39.5 -214t-109 -146t-164.5 -84t-206 -27h-315v-508h-287v1434h627q101 0 191 -28t157.5 -85t106.5 -142.5t39 -199.5zM1010 973q0 94 -57 138t-152 44h-330v-369h334q100 0 152.5 46.5t52.5 140.5z" />
    <glyph glyph-name="Q" unicode="Q" horiz-adv-x="1462" 
d="M1354 717q0 -185 -50.5 -319.5t-144.5 -231.5l107 -156l-219 -143l-103 149q-49 -20 -101 -29.5t-112 -9.5q-147 0 -262.5 54.5t-195.5 152t-122 233.5t-42 300q0 163 42 299t122 234t195.5 152t262.5 54t262.5 -54t195.5 -152t122.5 -234t42.5 -299zM1059 717
q0 96 -18.5 179t-58.5 144t-102 96t-149 35t-149 -35t-101.5 -96t-58.5 -144t-19 -179q0 -98 19.5 -183.5t60.5 -149t104 -100t150 -36.5q13 0 24.5 1t22.5 3l-96 143l219 144l92 -138q34 60 47 142.5t13 173.5z" />
    <glyph glyph-name="R" unicode="R" horiz-adv-x="1462" 
d="M1346 0h-330l-256 516h-289v-516h-287v1434h668q101 0 191 -28t157.5 -85t106.5 -142.5t39 -199.5q0 -162 -69 -265t-206 -157zM1051 973q0 97 -55 139.5t-150 42.5h-375v-369h375q100 0 152.5 46.5t52.5 140.5z" />
    <glyph glyph-name="S" unicode="S" horiz-adv-x="1354" 
d="M1235 434q0 -102 -33 -186t-102 -144.5t-175 -93.5t-253 -33q-90 0 -173 18.5t-155 52t-130.5 82t-98.5 108.5l207 184q75 -88 169 -126t197 -38q128 0 189 37t61 119q0 34 -12 60.5t-46.5 48.5t-97 42t-164.5 43q-99 23 -181.5 53t-141.5 78t-92 119.5t-33 177.5
q0 97 40 175t109.5 132.5t163 83.5t199.5 29q167 0 294 -59.5t228 -165.5l-207 -201q-69 71 -147.5 109.5t-177.5 38.5q-58 0 -97 -11.5t-63 -29.5t-34.5 -41t-10.5 -47q0 -34 13 -58t46 -42.5t88.5 -35t141.5 -36.5q57 -14 114.5 -30t110.5 -39.5t99.5 -55.5t81 -77
t54 -104t19.5 -137z" />
    <glyph glyph-name="T" unicode="T" horiz-adv-x="1294" 
d="M1202 1151h-411v-1151h-287v1151h-412v283h1110v-283z" />
    <glyph glyph-name="U" unicode="U" horiz-adv-x="1509" 
d="M1335 633q0 -156 -39.5 -278t-114.5 -206t-183 -128t-244 -44q-130 0 -236.5 43t-183 126t-118.5 204.5t-42 278.5v805h287v-801q0 -86 20 -155.5t58 -118.5t92 -75t123 -26q68 0 122.5 25.5t93 73.5t59 117t20.5 155v805h286v-801z" />
    <glyph glyph-name="V" unicode="V" horiz-adv-x="1462" 
d="M1380 1434l-510 -1434h-278l-510 1434h317l271 -830q10 -30 20 -63.5t19 -65t16 -59.5t12 -47q5 20 12 47.5t15.5 58.5t18.5 64t20 65l264 830h313z" />
    <glyph glyph-name="W" unicode="W" horiz-adv-x="1804" 
d="M1702 1434l-299 -1434h-281l-176 737q-8 32 -15 67t-14 68t-12 62t-8 49q-2 -20 -7 -49t-11.5 -62.5t-14 -68.5t-14.5 -66l-180 -737h-269l-299 1434h299l125 -699q5 -26 10 -57.5t10 -63.5t9 -62t6 -52q4 22 9.5 52t12.5 62t14 63.5t13 57.5l168 699h250l170 -699
q6 -26 13 -57.5t13.5 -63.5t12.5 -62t10 -52q2 22 6 52t9 62.5t10 64t10 56.5l125 699h295z" />
    <glyph glyph-name="X" unicode="X" horiz-adv-x="1438" 
d="M1346 0h-342l-130 217q-19 32 -42 72.5t-45 80t-40 74t-28 54.5q-9 -20 -27.5 -54t-40 -73t-45 -79.5t-43.5 -74.5l-129 -217h-342l455 733l-434 701h342l108 -185q19 -32 42 -72.5t45 -80t40.5 -73.5t28.5 -54q10 20 28 53.5t39.5 72.5t44.5 79.5t43 74.5l109 185h342
l-436 -701z" />
    <glyph glyph-name="Y" unicode="Y" horiz-adv-x="1462" 
d="M1417 1434l-543 -867v-567h-286v561l-543 873h330l203 -340q19 -32 42 -72.5t45 -80.5t40 -74t28 -54q10 20 28 53.5t40 73t45 80t43 74.5l203 340h325z" />
    <glyph glyph-name="Z" unicode="Z" horiz-adv-x="1409" 
d="M1270 0h-1131v254l617 735q17 21 39.5 47.5t45.5 53t44 49.5t35 37q-22 -1 -58.5 -2t-77.5 -1.5t-82.5 -1t-72.5 -0.5h-449v263h1080v-254l-611 -736q-17 -21 -39.5 -47.5t-45.5 -52.5t-44 -49t-35 -37q22 1 58 1.5t77.5 1t82.5 1t73 0.5h494v-262z" />
    <glyph glyph-name="bracketleft" unicode="[" horiz-adv-x="850" 
d="M721 -225h-526v1659h526v-226h-250v-1208h250v-225z" />
    <glyph glyph-name="backslash" unicode="\" horiz-adv-x="963" 
d="M954 -184h-278l-668 1802h279z" />
    <glyph glyph-name="bracketright" unicode="]" horiz-adv-x="850" 
d="M655 -225h-526v225h250v1208h-250v226h526v-1659z" />
    <glyph glyph-name="asciicircum" unicode="^" horiz-adv-x="1184" 
d="M1087 782h-290l-207 381l-207 -381h-287l383 652h226z" />
    <glyph glyph-name="underscore" unicode="_" horiz-adv-x="1024" 
d="M1024 -383h-1024v236h1024v-236z" />
    <glyph glyph-name="grave" unicode="`" horiz-adv-x="1024" 
d="M741 1219h-239l-297 327h358z" />
    <glyph glyph-name="a" unicode="a" horiz-adv-x="1139" 
d="M1012 0h-283v72q-38 -41 -102 -68t-140 -27q-75 0 -147 23.5t-128.5 70.5t-91 119t-34.5 170q0 89 34 156t93 111.5t138.5 67t170.5 22.5q75 0 124 -13t83 -30v53q0 28 -9.5 53t-29 44t-48 29.5t-67.5 10.5q-48 0 -86.5 -3.5t-72 -12t-66 -22t-69.5 -33.5l-109 196
q47 27 91.5 47.5t92 34t101 20.5t118.5 7q98 0 178.5 -25t138 -73t89 -118t31.5 -161v-721zM729 315v136q-18 11 -37 19.5t-42 14t-51.5 8.5t-66.5 3q-80 0 -121.5 -35.5t-41.5 -100.5q0 -28 8.5 -54t28 -45.5t50.5 -31.5t76 -12q35 0 65.5 8t56 21.5t44.5 31.5t31 37z" />
    <glyph glyph-name="b" unicode="b" horiz-adv-x="1151" 
d="M1065 524q0 -120 -28 -220.5t-81.5 -173t-131 -113t-177.5 -40.5q-71 0 -130 24.5t-97 59.5v-61h-283v1352l283 141v-485q20 18 43.5 34t51.5 28.5t61 20t71 7.5q86 0 162 -33t133 -103t90 -178.5t33 -259.5zM778 518q0 83 -13 142t-37 97t-58 56t-76 18
q-33 0 -58.5 -6.5t-46 -18.5t-37.5 -28.5t-32 -36.5v-405q66 -92 190 -92q82 0 125 69t43 205z" />
    <glyph glyph-name="c" unicode="c" horiz-adv-x="1100" 
d="M1026 217q-39 -52 -82.5 -96t-96.5 -76t-117 -50t-144 -18q-105 0 -197 41t-160.5 115t-107.5 177t-39 227q0 123 38.5 226.5t107.5 177.5t163.5 115.5t206.5 41.5q77 0 140.5 -18t115.5 -49.5t94 -75.5t76 -95l-186 -188q-24 34 -49.5 62t-54.5 48t-64 31.5t-78 11.5
q-51 0 -92 -20.5t-70 -58t-45 -90.5t-16 -119q0 -65 16 -117.5t45 -90.5t70 -58.5t92 -20.5q41 0 75.5 9t65 26.5t58 43t55.5 58.5z" />
    <glyph glyph-name="d" unicode="d" horiz-adv-x="1151" 
d="M1010 0h-283v68q-40 -36 -95 -63.5t-132 -27.5q-86 0 -162 33.5t-133 103.5t-90 178.5t-33 258.5q0 120 28 220.5t81 173t131 113t178 40.5q71 0 130 -24.5t97 -59.5v338l283 141v-1493zM727 334v405q-66 92 -190 92q-82 0 -125 -69t-43 -205q0 -83 13 -142t37 -97
t58 -56t76 -18q33 0 58.5 6.5t46 18.5t37.5 28.5t32 36.5z" />
    <glyph glyph-name="e" unicode="e" horiz-adv-x="1102" 
d="M1014 537q0 -31 -1 -53t-3 -38h-643q4 -55 24.5 -93.5t51 -62.5t68.5 -35t77 -11q59 0 106 20t78 55l201 -167q-32 -42 -76 -74.5t-95 -55t-105.5 -34t-108.5 -11.5q-116 0 -209.5 39.5t-159.5 113t-101.5 176.5t-35.5 231q0 123 36.5 226.5t101 177.5t152 115.5
t189.5 41.5q108 0 192 -44.5t142 -121t88.5 -178.5t30.5 -217zM739 659q-3 36 -15.5 71t-36 62t-58 43.5t-82.5 16.5q-39 0 -69.5 -15t-53 -41t-36 -61t-17.5 -76h368z" />
    <glyph glyph-name="f" unicode="f" horiz-adv-x="758" 
d="M692 1229q-21 11 -44 16.5t-54 5.5q-63 0 -84 -20.5t-21 -65.5v-90h183v-266h-183v-809h-282v809h-129v266h129v129q0 75 20.5 129t59.5 88t96 50t131 16q106 0 178 -31v-227z" />
    <glyph glyph-name="g" unicode="g" horiz-adv-x="1151" 
d="M1010 182q0 -133 -19.5 -234t-71 -172t-141.5 -113.5t-231 -57.5l-101 213q83 11 137.5 28t86.5 45.5t44.5 71.5t12.5 105q-40 -36 -95 -63.5t-132 -27.5q-86 0 -162 33.5t-133 103.5t-90 178.5t-33 258.5q0 120 28 220.5t81 173t131 113t178 40.5q71 0 130 -24.5
t97 -59.5v61h283v-893zM727 334v405q-66 92 -190 92q-82 0 -125 -69t-43 -205q0 -83 13 -142t37 -97t58 -56t76 -18q33 0 58.5 6.5t46 18.5t37.5 28.5t32 36.5z" />
    <glyph glyph-name="h" unicode="h" horiz-adv-x="1196" 
d="M1069 0h-283v582q0 72 -12 120t-35 76.5t-57 40.5t-78 12t-78 -12t-57.5 -40t-36 -74.5t-12.5 -116.5v-588h-283v1352l283 141v-489q37 38 102 66t150 28q103 0 177.5 -34.5t123.5 -98t72.5 -154.5t23.5 -205v-606z" />
    <glyph glyph-name="i" unicode="i" horiz-adv-x="578" 
d="M451 1325q0 -33 -13 -62.5t-35 -51.5t-51.5 -35t-62.5 -13t-62.5 13t-51.5 35t-35 51.5t-13 62.5t13 62.5t35 51.5t51.5 35t62.5 13t62.5 -13t51.5 -35t35 -51.5t13 -62.5zM430 0h-283v1075h283v-1075z" />
    <glyph glyph-name="j" unicode="j" horiz-adv-x="578" 
d="M451 1325q0 -33 -13 -62.5t-35 -51.5t-51.5 -35t-62.5 -13t-62.5 13t-51.5 35t-35 51.5t-13 62.5t13 62.5t35 51.5t51.5 35t62.5 13t62.5 -13t51.5 -35t35 -51.5t13 -62.5zM430 80q0 -113 -19.5 -194t-67.5 -136.5t-129.5 -90t-205.5 -54.5l-98 217q73 14 119 30.5
t72 43.5t36 68t10 104v1007h283v-995z" />
    <glyph glyph-name="k" unicode="k" horiz-adv-x="1128" 
d="M1071 0h-309l-205 496l-137 -170v-326h-283v1352l283 141v-571q0 -25 -0.5 -56.5t-1 -63.5t-1 -61t-1.5 -49q10 16 24.5 36t29.5 41.5t30.5 42t29.5 38.5l175 225h333l-276 -342z" />
    <glyph glyph-name="l" unicode="l" horiz-adv-x="578" 
d="M430 0h-283v1352l283 141v-1493z" />
    <glyph glyph-name="m" unicode="m" horiz-adv-x="1804" 
d="M1677 0h-282v582q0 72 -10.5 120t-32 76.5t-54 40.5t-75.5 12q-44 0 -76.5 -12t-54.5 -40t-32.5 -74.5t-10.5 -116.5v-588h-283v582q0 72 -10.5 120t-31.5 76.5t-53.5 40.5t-76.5 12t-76.5 -12t-54.5 -40t-32.5 -74.5t-10.5 -116.5v-588h-283v1075h283v-71q37 38 94 66
t141 28q52 0 93.5 -7.5t76.5 -24t66 -42.5t61 -63q28 28 59.5 53t72 43.5t92 29.5t118.5 11q103 0 176 -34.5t119 -98t67 -154.5t21 -205v-606z" />
    <glyph glyph-name="n" unicode="n" horiz-adv-x="1196" 
d="M1069 0h-283v582q0 72 -12 120t-35 76.5t-57 40.5t-78 12t-78 -12t-57.5 -40t-36 -74.5t-12.5 -116.5v-588h-283v1075h283v-71q37 38 102 66t150 28q103 0 177.5 -34.5t123.5 -98t72.5 -154.5t23.5 -205v-606z" />
    <glyph glyph-name="o" unicode="o" horiz-adv-x="1137" 
d="M1055 537q0 -124 -36.5 -227t-102 -177t-155 -115t-194.5 -41t-194 41t-153.5 115t-101 177t-36.5 227q0 123 36.5 226.5t101 177.5t153.5 115.5t194 41.5t194.5 -41.5t155 -115.5t102 -177.5t36.5 -226.5zM768 537q0 61 -12.5 113.5t-37.5 91.5t-62.5 61t-88.5 22
t-88 -22t-61.5 -60.5t-36.5 -91t-12 -114.5t12 -115t36.5 -91t61.5 -59.5t88 -21.5t88.5 23.5t62.5 63.5t37.5 92t12.5 108z" />
    <glyph glyph-name="p" unicode="p" horiz-adv-x="1151" 
d="M1065 524q0 -120 -28 -220.5t-81.5 -173t-131 -113t-177.5 -40.5q-71 0 -130 24.5t-97 59.5v-315l-283 -141v1470h283v-67q20 18 43.5 34t51.5 28.5t61 20t71 7.5q86 0 162 -33t133 -103t90 -178.5t33 -259.5zM778 518q0 83 -13 142t-37 97t-58 56t-76 18
q-33 0 -58.5 -6.5t-46 -18.5t-37.5 -28.5t-32 -36.5v-405q66 -92 190 -92q82 0 125 69t43 205z" />
    <glyph glyph-name="q" unicode="q" horiz-adv-x="1151" 
d="M1010 -254l-283 -141v463q-40 -36 -95 -63.5t-132 -27.5q-86 0 -162 33.5t-133 103.5t-90 178.5t-33 258.5q0 120 28 220.5t81 173t131 113t178 40.5q71 0 130 -24.5t97 -59.5v61h283v-1329zM727 334v405q-66 92 -190 92q-82 0 -125 -69t-43 -205q0 -83 13 -142t37 -97
t58 -56t76 -18q33 0 58.5 6.5t46 18.5t37.5 28.5t32 36.5z" />
    <glyph glyph-name="r" unicode="r" horiz-adv-x="877" 
d="M840 1022l-74 -277q-34 31 -75 50.5t-89 19.5q-41 0 -74.5 -10.5t-57.5 -36.5t-37 -71t-13 -115v-582h-283v1075h283v-71q37 38 91.5 66t129.5 28q69 0 120 -23.5t79 -52.5z" />
    <glyph glyph-name="s" unicode="s" horiz-adv-x="1100" 
d="M987 313q0 -93 -34.5 -157t-94 -103.5t-139 -57.5t-170.5 -18q-64 0 -126 9t-120 25.5t-110 39.5t-95 51l95 215q86 -48 177.5 -73t194.5 -25q42 0 69.5 5t44 15.5t23.5 25.5t7 36q0 18 -8 32.5t-26.5 27t-48.5 24.5t-75 25q-97 29 -175 58t-133.5 69.5t-85.5 98
t-30 142.5q0 84 31.5 144.5t88.5 99.5t136 57.5t174 18.5q102 0 206.5 -28.5t190.5 -76.5l-90 -223q-80 43 -162.5 64.5t-150.5 21.5q-43 0 -71 -4t-44.5 -13t-23 -22t-6.5 -31q0 -17 8 -30t32 -26t67.5 -29t115.5 -39q72 -24 137 -51.5t114 -66.5t78 -94.5t29 -136.5z" />
    <glyph glyph-name="t" unicode="t" horiz-adv-x="905" 
d="M778 330l-41 -287q-35 -28 -94 -47t-125 -19q-65 0 -118 24t-90.5 67.5t-58 102.5t-20.5 130v508h-180v266h180v277l283 141v-418h258v-266h-258v-432q0 -39 7 -64t20 -39.5t32.5 -20t44.5 -5.5q19 0 37 4.5t36.5 14t39.5 25t47 38.5z" />
    <glyph glyph-name="u" unicode="u" horiz-adv-x="1196" 
d="M1059 0h-283v72q-37 -39 -102 -67t-150 -28q-103 0 -178 34.5t-123.5 98t-72 154.5t-23.5 205v606h283v-581q0 -72 12 -120.5t35 -77t57 -40.5t78 -12t78 12t57.5 40t36 74.5t12.5 116.5v588h283v-1075z" />
    <glyph glyph-name="v" unicode="v" horiz-adv-x="1167" 
d="M1116 1075l-387 -1075h-291l-387 1075h311l158 -497q10 -31 20 -64.5t19 -65t16.5 -59.5t12.5 -47q4 20 11.5 47.5t16.5 59t19 64.5t20 65l158 497h303z" />
    <glyph glyph-name="w" unicode="w" horiz-adv-x="1520" 
d="M1468 1075l-309 -1075h-235l-107 422q-8 31 -16.5 67.5t-16.5 71.5t-14.5 65.5t-9.5 49.5q-3 -19 -9.5 -49.5t-14.5 -65.5t-17 -71.5t-17 -67.5l-106 -422h-236l-309 1075h287l94 -397q7 -31 15 -66t15 -68.5t12.5 -63t8.5 -48.5q3 20 9.5 49t14.5 62.5t16.5 68
t17.5 66.5l106 397h234l106 -397q9 -32 17.5 -66.5t16.5 -68t14 -62.5t9 -49q3 19 9 48.5t13 63t15 68.5t15 66l94 397h278z" />
    <glyph glyph-name="x" unicode="x" horiz-adv-x="1176" 
d="M1130 0h-335l-109 178q-29 48 -56 95.5t-42 78.5q-7 -15 -18 -35.5t-24.5 -43.5t-28 -47.5t-28.5 -47.5l-108 -178h-336l381 582l-324 493h336l51 -88q28 -48 55.5 -95.5t43.5 -78.5q15 31 42.5 78.5t55.5 95.5l51 88h336l-323 -493z" />
    <glyph glyph-name="y" unicode="y" horiz-adv-x="1208" 
d="M1157 1075l-553 -1454h-278l143 379l-418 1075h311l177 -518q10 -31 20.5 -64.5t20 -65t16.5 -59t12 -46.5q5 20 12.5 47.5t16.5 58.5t19.5 64t21.5 65l176 518h303z" />
    <glyph glyph-name="z" unicode="z" horiz-adv-x="1135" 
d="M1012 0h-889v205l391 465q16 19 35 41t38 43t35 39t27 30q-15 -1 -36.5 -1.5t-46 -1l-49 -1t-44.5 -0.5h-315v256h854v-205l-379 -464q-16 -20 -35 -42t-37 -43t-34.5 -39t-26.5 -30q15 1 36.5 1.5t46 1l49 1t44.5 0.5h336v-256z" />
    <glyph glyph-name="braceleft" unicode="{" horiz-adv-x="942" 
d="M834 -225q-141 0 -243.5 27.5t-169 81.5t-98.5 135t-32 188v145q0 75 -31.5 108.5t-91.5 33.5h-45v229h45q60 0 91.5 33.5t31.5 107.5v148q0 106 32 187t98.5 135.5t169 82t243.5 27.5v-187q-77 -8 -126.5 -26.5t-78.5 -51t-40 -79t-11 -109.5v-63q0 -83 -12 -138
t-36 -90.5t-60.5 -56t-86.5 -35.5q50 -15 86.5 -35.5t60.5 -56t36 -90t12 -137.5v-62q0 -63 11 -109.5t40 -78.5t78.5 -51t126.5 -27v-186z" />
    <glyph glyph-name="bar" unicode="|" horiz-adv-x="584" 
d="M420 -379h-256v2017h256v-2017z" />
    <glyph glyph-name="braceright" unicode="}" horiz-adv-x="942" 
d="M819 496h-45q-60 0 -91.5 -33.5t-31.5 -108.5v-147q0 -107 -32 -188t-98 -135t-168.5 -81.5t-243.5 -27.5v186q76 8 126 27t78.5 51t40 78.5t11.5 109.5v64q0 83 11.5 137.5t35.5 90t60.5 56t86.5 35.5q-50 15 -86.5 35.5t-60.5 56t-35.5 90.5t-11.5 138v61
q0 63 -11.5 109.5t-40 79t-78.5 51t-126 26.5v187q141 0 243.5 -27.5t168.5 -82t98 -135.5t32 -187v-146q0 -74 31.5 -107.5t91.5 -33.5h45v-229z" />
    <glyph glyph-name="asciitilde" unicode="~" horiz-adv-x="1151" 
d="M1065 868q-28 -71 -59 -128t-68.5 -97t-83 -62t-102.5 -22q-32 0 -57 4.5t-47.5 13t-45 21.5t-47.5 31q-59 40 -95 61t-65 21q-21 0 -37 -5.5t-31 -21.5t-32 -44.5t-41 -74.5l-168 86q28 71 59 128t68.5 97.5t83 62.5t102.5 22q31 0 56.5 -4.5t48 -13t44.5 -21.5t48 -31
q33 -23 56.5 -38.5t41.5 -25t32.5 -14t29.5 -4.5q21 0 36.5 5.5t30.5 21t32 44t42 74.5z" />
    <glyph glyph-name="Adieresis" unicode="&#xc4;" horiz-adv-x="1536" 
d="M1454 0h-315l-113 319h-524l-113 -319h-307l549 1434h278zM928 592l-92 260q-22 63 -41.5 123t-30.5 100q-11 -40 -30.5 -100t-41.5 -123l-92 -260h328zM1147 1683q0 -32 -13 -60t-34.5 -50t-50.5 -34.5t-60 -12.5q-33 0 -62.5 12.5t-51.5 34.5t-35 50t-13 60q0 33 13 62
t35 51t51.5 34.5t62.5 12.5q31 0 60 -12.5t50.5 -34.5t34.5 -51t13 -62zM705 1683q0 -32 -13 -60t-35 -50t-51 -34.5t-61 -12.5t-61 12.5t-51 34.5t-35 50t-13 60q0 33 13 62t35 51t51 34.5t61 12.5t61 -12.5t51 -34.5t35 -51t13 -62z" />
    <glyph glyph-name="Aring" unicode="&#xc5;" horiz-adv-x="1536" 
d="M1454 0h-315l-113 319h-524l-113 -319h-307l504 1317q-44 37 -68 90.5t-24 118.5q0 59 21 109.5t58 87.5t87.5 58t109.5 21t110 -21t88 -58t58 -87.5t21 -109.5q0 -65 -25 -118.5t-70 -90.5zM891 1526q0 26 -9.5 48.5t-25.5 39t-38.5 26t-47.5 9.5q-26 0 -48 -9.5
t-38 -26t-25.5 -39t-9.5 -48.5t9.5 -48.5t25.5 -39t38 -26t48 -9.5q25 0 47.5 9.5t38.5 26t25.5 39t9.5 48.5zM928 592l-92 260q-22 63 -41.5 123t-30.5 100q-11 -40 -30.5 -100t-41.5 -123l-92 -260h328z" />
    <glyph glyph-name="Ccedilla" unicode="&#xc7;" horiz-adv-x="1372" 
d="M1270 1139l-266 -123q-39 74 -102.5 114.5t-160.5 40.5q-81 0 -143.5 -33.5t-106 -93.5t-66 -143.5t-22.5 -183.5q0 -97 23 -180t66.5 -144t106.5 -96t144 -35q48 0 87.5 10.5t73 33t62.5 56.5t58 82l242 -143q-36 -75 -86 -134t-114 -100.5t-142.5 -64.5t-171.5 -25
l-15 -63q13 6 32 10t48 4q33 0 62 -8.5t51 -26.5t34.5 -45.5t12.5 -64.5q0 -46 -17.5 -79.5t-49.5 -55.5t-77 -32.5t-100 -10.5q-83 0 -151 21.5t-117 51.5l43 78q46 -24 94 -36.5t88 -12.5q54 0 82.5 17.5t28.5 52.5q0 31 -19.5 42t-44.5 11q-20 0 -33 -3t-28 -11l-74 28
l33 140q-119 18 -216 76.5t-166 153t-106.5 221.5t-37.5 282q0 163 47 299t131 234t201 152t257 54q102 0 184 -23.5t146.5 -65.5t112.5 -100t82 -128z" />
    <glyph glyph-name="Eacute" unicode="&#xc9;" horiz-adv-x="1331" 
d="M1210 0h-1026v1434h996v-281h-709v-248h412v-278h-412v-346h739v-281zM1059 1853l-297 -327h-239l178 327h358z" />
    <glyph glyph-name="Ntilde" unicode="&#xd1;" horiz-adv-x="1530" 
d="M1346 0h-256l-527 782q-13 20 -28 43t-28.5 44.5t-25 41t-18.5 33.5q0 -20 0.5 -60t1.5 -86.5t1.5 -91.5t0.5 -75v-631h-283v1434h275l508 -758q13 -20 27.5 -42.5t28.5 -44.5t25.5 -41.5t18.5 -33.5q0 20 -0.5 60t-1.5 86.5t-1.5 91.5t-0.5 75v607h283v-1434zM1174 1814
q0 -68 -17.5 -123t-48.5 -93t-74.5 -58.5t-95.5 -20.5q-32 0 -57 3.5t-48 11t-47 19.5t-55 30q-23 13 -38.5 21t-27.5 12.5t-21 6t-19 1.5q-29 0 -45 -22t-25 -76h-184q0 68 17 122.5t48 92.5t74.5 58.5t95.5 20.5q32 0 57 -3t48 -10.5t47 -19.5t55 -30q23 -13 39 -21
t27.5 -12.5t21 -6t19.5 -1.5q29 0 44.5 22t24.5 76h185z" />
    <glyph glyph-name="Odieresis" unicode="&#xd6;" horiz-adv-x="1473" 
d="M1368 719q0 -174 -46.5 -311.5t-130 -233t-200 -146.5t-256.5 -51q-141 0 -257 50t-199 145t-129 232t-46 311t46.5 311.5t130.5 233t201 146t257 50.5t255.5 -50t198.5 -145t129 -231.5t46 -310.5zM1073 715q0 109 -25 194t-70 143t-107.5 88.5t-137.5 30.5t-137 -29.5
t-105.5 -87t-67.5 -142t-24 -193.5t25 -194t70 -143.5t107.5 -89t137.5 -30.5t137 30t105.5 87.5t67.5 142t24 193.5zM1108 1683q0 -32 -13 -60t-34.5 -50t-50.5 -34.5t-60 -12.5q-33 0 -62.5 12.5t-51.5 34.5t-35 50t-13 60q0 33 13 62t35 51t51.5 34.5t62.5 12.5
q31 0 60 -12.5t50.5 -34.5t34.5 -51t13 -62zM666 1683q0 -32 -13 -60t-35 -50t-51 -34.5t-61 -12.5t-61 12.5t-51 34.5t-35 50t-13 60q0 33 13 62t35 51t51 34.5t61 12.5t61 -12.5t51 -34.5t35 -51t13 -62z" />
    <glyph glyph-name="Udieresis" unicode="&#xdc;" horiz-adv-x="1509" 
d="M1335 633q0 -156 -39.5 -278t-114.5 -206t-183 -128t-244 -44q-130 0 -236.5 43t-183 126t-118.5 204.5t-42 278.5v805h287v-801q0 -86 20 -155.5t58 -118.5t92 -75t123 -26q68 0 122.5 25.5t93 73.5t59 117t20.5 155v805h286v-801zM1137 1683q0 -32 -13 -60t-34.5 -50
t-50.5 -34.5t-60 -12.5q-33 0 -62.5 12.5t-51.5 34.5t-35 50t-13 60q0 33 13 62t35 51t51.5 34.5t62.5 12.5q31 0 60 -12.5t50.5 -34.5t34.5 -51t13 -62zM695 1683q0 -32 -13 -60t-35 -50t-51 -34.5t-61 -12.5t-61 12.5t-51 34.5t-35 50t-13 60q0 33 13 62t35 51t51 34.5
t61 12.5t61 -12.5t51 -34.5t35 -51t13 -62z" />
    <glyph glyph-name="aacute" unicode="&#xe1;" horiz-adv-x="1139" 
d="M1012 0h-283v72q-38 -41 -102 -68t-140 -27q-75 0 -147 23.5t-128.5 70.5t-91 119t-34.5 170q0 89 34 156t93 111.5t138.5 67t170.5 22.5q75 0 124 -13t83 -30v53q0 28 -9.5 53t-29 44t-48 29.5t-67.5 10.5q-48 0 -86.5 -3.5t-72 -12t-66 -22t-69.5 -33.5l-109 196
q47 27 91.5 47.5t92 34t101 20.5t118.5 7q98 0 178.5 -25t138 -73t89 -118t31.5 -161v-721zM729 315v136q-18 11 -37 19.5t-42 14t-51.5 8.5t-66.5 3q-80 0 -121.5 -35.5t-41.5 -100.5q0 -28 8.5 -54t28 -45.5t50.5 -31.5t76 -12q35 0 65.5 8t56 21.5t44.5 31.5t31 37z
M940 1546l-297 -327h-239l178 327h358z" />
    <glyph glyph-name="agrave" unicode="&#xe0;" horiz-adv-x="1139" 
d="M1012 0h-283v72q-38 -41 -102 -68t-140 -27q-75 0 -147 23.5t-128.5 70.5t-91 119t-34.5 170q0 89 34 156t93 111.5t138.5 67t170.5 22.5q75 0 124 -13t83 -30v53q0 28 -9.5 53t-29 44t-48 29.5t-67.5 10.5q-48 0 -86.5 -3.5t-72 -12t-66 -22t-69.5 -33.5l-109 196
q47 27 91.5 47.5t92 34t101 20.5t118.5 7q98 0 178.5 -25t138 -73t89 -118t31.5 -161v-721zM729 315v136q-18 11 -37 19.5t-42 14t-51.5 8.5t-66.5 3q-80 0 -121.5 -35.5t-41.5 -100.5q0 -28 8.5 -54t28 -45.5t50.5 -31.5t76 -12q35 0 65.5 8t56 21.5t44.5 31.5t31 37z
M719 1219h-239l-297 327h358z" />
    <glyph glyph-name="acircumflex" unicode="&#xe2;" horiz-adv-x="1139" 
d="M1012 0h-283v72q-38 -41 -102 -68t-140 -27q-75 0 -147 23.5t-128.5 70.5t-91 119t-34.5 170q0 89 34 156t93 111.5t138.5 67t170.5 22.5q75 0 124 -13t83 -30v53q0 28 -9.5 53t-29 44t-48 29.5t-67.5 10.5q-48 0 -86.5 -3.5t-72 -12t-66 -22t-69.5 -33.5l-109 196
q47 27 91.5 47.5t92 34t101 20.5t118.5 7q98 0 178.5 -25t138 -73t89 -118t31.5 -161v-721zM729 315v136q-18 11 -37 19.5t-42 14t-51.5 8.5t-66.5 3q-80 0 -121.5 -35.5t-41.5 -100.5q0 -28 8.5 -54t28 -45.5t50.5 -31.5t76 -12q35 0 65.5 8t56 21.5t44.5 31.5t31 37z
M962 1210h-190l-205 153l-205 -153h-186l250 327h286z" />
    <glyph glyph-name="adieresis" unicode="&#xe4;" horiz-adv-x="1139" 
d="M1012 0h-283v72q-38 -41 -102 -68t-140 -27q-75 0 -147 23.5t-128.5 70.5t-91 119t-34.5 170q0 89 34 156t93 111.5t138.5 67t170.5 22.5q75 0 124 -13t83 -30v53q0 28 -9.5 53t-29 44t-48 29.5t-67.5 10.5q-48 0 -86.5 -3.5t-72 -12t-66 -22t-69.5 -33.5l-109 196
q47 27 91.5 47.5t92 34t101 20.5t118.5 7q98 0 178.5 -25t138 -73t89 -118t31.5 -161v-721zM729 315v136q-18 11 -37 19.5t-42 14t-51.5 8.5t-66.5 3q-80 0 -121.5 -35.5t-41.5 -100.5q0 -28 8.5 -54t28 -45.5t50.5 -31.5t76 -12q35 0 65.5 8t56 21.5t44.5 31.5t31 37z
M950 1367q0 -32 -13 -60t-34.5 -50t-50.5 -34.5t-60 -12.5q-33 0 -62.5 12.5t-51.5 34.5t-35 50t-13 60q0 33 13 62t35 51t51.5 34.5t62.5 12.5q31 0 60 -12.5t50.5 -34.5t34.5 -51t13 -62zM508 1367q0 -32 -13 -60t-35 -50t-51 -34.5t-61 -12.5t-61 12.5t-51 34.5t-35 50
t-13 60q0 33 13 62t35 51t51 34.5t61 12.5t61 -12.5t51 -34.5t35 -51t13 -62z" />
    <glyph glyph-name="atilde" unicode="&#xe3;" horiz-adv-x="1139" 
d="M1012 0h-283v72q-38 -41 -102 -68t-140 -27q-75 0 -147 23.5t-128.5 70.5t-91 119t-34.5 170q0 89 34 156t93 111.5t138.5 67t170.5 22.5q75 0 124 -13t83 -30v53q0 28 -9.5 53t-29 44t-48 29.5t-67.5 10.5q-48 0 -86.5 -3.5t-72 -12t-66 -22t-69.5 -33.5l-109 196
q47 27 91.5 47.5t92 34t101 20.5t118.5 7q98 0 178.5 -25t138 -73t89 -118t31.5 -161v-721zM729 315v136q-18 11 -37 19.5t-42 14t-51.5 8.5t-66.5 3q-80 0 -121.5 -35.5t-41.5 -100.5q0 -28 8.5 -54t28 -45.5t50.5 -31.5t76 -12q35 0 65.5 8t56 21.5t44.5 31.5t31 37z
M977 1507q0 -68 -17.5 -123t-48.5 -93t-74.5 -58.5t-95.5 -20.5q-32 0 -57 3.5t-48 11t-47 19.5t-55 30q-23 13 -38.5 21t-27.5 12.5t-21 6t-19 1.5q-29 0 -45 -22t-25 -76h-184q0 68 17 122.5t48 92.5t74.5 58.5t95.5 20.5q32 0 57 -3t48 -10.5t47 -19.5t55 -30
q23 -13 39 -21t27.5 -12.5t21 -6t19.5 -1.5q29 0 44.5 22t24.5 76h185z" />
    <glyph glyph-name="aring" unicode="&#xe5;" horiz-adv-x="1139" 
d="M1012 0h-283v72q-38 -41 -102 -68t-140 -27q-75 0 -147 23.5t-128.5 70.5t-91 119t-34.5 170q0 89 34 156t93 111.5t138.5 67t170.5 22.5q75 0 124 -13t83 -30v53q0 28 -9.5 53t-29 44t-48 29.5t-67.5 10.5q-48 0 -86.5 -3.5t-72 -12t-66 -22t-69.5 -33.5l-109 196
q47 27 91.5 47.5t92 34t101 20.5t118.5 7q98 0 178.5 -25t138 -73t89 -118t31.5 -161v-721zM729 315v136q-18 11 -37 19.5t-42 14t-51.5 8.5t-66.5 3q-80 0 -121.5 -35.5t-41.5 -100.5q0 -28 8.5 -54t28 -45.5t50.5 -31.5t76 -12q35 0 65.5 8t56 21.5t44.5 31.5t31 37z
M845 1491q0 -59 -21 -109t-58 -86t-87.5 -56.5t-109.5 -20.5t-109.5 20.5t-87.5 56.5t-58 86t-21 109t21 109.5t58 87.5t87.5 58t109.5 21t109.5 -21t87.5 -58t58 -87.5t21 -109.5zM690 1491q0 26 -9.5 48.5t-25.5 39t-38.5 26t-47.5 9.5q-26 0 -48 -9.5t-38 -26t-25.5 -39
t-9.5 -48.5t9.5 -48.5t25.5 -39t38 -26t48 -9.5q25 0 47.5 9.5t38.5 26t25.5 39t9.5 48.5z" />
    <glyph glyph-name="ccedilla" unicode="&#xe7;" horiz-adv-x="1100" 
d="M1026 217q-37 -49 -78 -91t-89.5 -74t-107 -51.5t-130.5 -23.5l-15 -63q13 6 32 10t48 4q33 0 62 -8.5t51 -26.5t34.5 -45.5t12.5 -64.5q0 -46 -17.5 -79.5t-49.5 -55.5t-77 -32.5t-100 -10.5q-83 0 -151 21.5t-117 51.5l43 78q46 -24 94 -36.5t88 -12.5q54 0 82.5 17.5
t28.5 52.5q0 31 -19.5 42t-44.5 11q-20 0 -33 -3t-28 -11l-74 28l33 140q-91 15 -168 61.5t-133.5 118.5t-88.5 167t-32 206q0 123 38.5 226.5t107.5 177.5t163.5 115.5t206.5 41.5q77 0 140.5 -18t115.5 -49.5t94 -75.5t76 -95l-186 -188q-24 34 -49.5 62t-54.5 48
t-64 31.5t-78 11.5q-51 0 -92 -20.5t-70 -58t-45 -90.5t-16 -119q0 -65 16 -117.5t45 -90.5t70 -58.5t92 -20.5q41 0 75.5 9t65 26.5t58 43t55.5 58.5z" />
    <glyph glyph-name="eacute" unicode="&#xe9;" horiz-adv-x="1102" 
d="M1014 537q0 -31 -1 -53t-3 -38h-643q4 -55 24.5 -93.5t51 -62.5t68.5 -35t77 -11q59 0 106 20t78 55l201 -167q-32 -42 -76 -74.5t-95 -55t-105.5 -34t-108.5 -11.5q-116 0 -209.5 39.5t-159.5 113t-101.5 176.5t-35.5 231q0 123 36.5 226.5t101 177.5t152 115.5
t189.5 41.5q108 0 192 -44.5t142 -121t88.5 -178.5t30.5 -217zM739 659q-3 36 -15.5 71t-36 62t-58 43.5t-82.5 16.5q-39 0 -69.5 -15t-53 -41t-36 -61t-17.5 -76h368zM930 1546l-297 -327h-239l178 327h358z" />
    <glyph glyph-name="egrave" unicode="&#xe8;" horiz-adv-x="1102" 
d="M1014 537q0 -31 -1 -53t-3 -38h-643q4 -55 24.5 -93.5t51 -62.5t68.5 -35t77 -11q59 0 106 20t78 55l201 -167q-32 -42 -76 -74.5t-95 -55t-105.5 -34t-108.5 -11.5q-116 0 -209.5 39.5t-159.5 113t-101.5 176.5t-35.5 231q0 123 36.5 226.5t101 177.5t152 115.5
t189.5 41.5q108 0 192 -44.5t142 -121t88.5 -178.5t30.5 -217zM739 659q-3 36 -15.5 71t-36 62t-58 43.5t-82.5 16.5q-39 0 -69.5 -15t-53 -41t-36 -61t-17.5 -76h368zM709 1219h-239l-297 327h358z" />
    <glyph glyph-name="ecircumflex" unicode="&#xea;" horiz-adv-x="1102" 
d="M1014 537q0 -31 -1 -53t-3 -38h-643q4 -55 24.5 -93.5t51 -62.5t68.5 -35t77 -11q59 0 106 20t78 55l201 -167q-32 -42 -76 -74.5t-95 -55t-105.5 -34t-108.5 -11.5q-116 0 -209.5 39.5t-159.5 113t-101.5 176.5t-35.5 231q0 123 36.5 226.5t101 177.5t152 115.5
t189.5 41.5q108 0 192 -44.5t142 -121t88.5 -178.5t30.5 -217zM739 659q-3 36 -15.5 71t-36 62t-58 43.5t-82.5 16.5q-39 0 -69.5 -15t-53 -41t-36 -61t-17.5 -76h368zM952 1200h-190l-205 153l-205 -153h-186l250 327h286z" />
    <glyph glyph-name="edieresis" unicode="&#xeb;" horiz-adv-x="1102" 
d="M1014 537q0 -31 -1 -53t-3 -38h-643q4 -55 24.5 -93.5t51 -62.5t68.5 -35t77 -11q59 0 106 20t78 55l201 -167q-32 -42 -76 -74.5t-95 -55t-105.5 -34t-108.5 -11.5q-116 0 -209.5 39.5t-159.5 113t-101.5 176.5t-35.5 231q0 123 36.5 226.5t101 177.5t152 115.5
t189.5 41.5q108 0 192 -44.5t142 -121t88.5 -178.5t30.5 -217zM739 659q-3 36 -15.5 71t-36 62t-58 43.5t-82.5 16.5q-39 0 -69.5 -15t-53 -41t-36 -61t-17.5 -76h368zM940 1367q0 -32 -13 -60t-34.5 -50t-50.5 -34.5t-60 -12.5q-33 0 -62.5 12.5t-51.5 34.5t-35 50t-13 60
q0 33 13 62t35 51t51.5 34.5t62.5 12.5q31 0 60 -12.5t50.5 -34.5t34.5 -51t13 -62zM498 1367q0 -32 -13 -60t-35 -50t-51 -34.5t-61 -12.5t-61 12.5t-51 34.5t-35 50t-13 60q0 33 13 62t35 51t51 34.5t61 12.5t61 -12.5t51 -34.5t35 -51t13 -62z" />
    <glyph glyph-name="iacute" unicode="&#xed;" horiz-adv-x="578" 
d="M430 0h-283v1075h283v-1075zM691 1546l-297 -327h-239l178 327h358z" />
    <glyph glyph-name="igrave" unicode="&#xec;" horiz-adv-x="578" 
d="M430 0h-283v1075h283v-1075zM423 1219h-239l-297 327h358z" />
    <glyph glyph-name="icircumflex" unicode="&#xee;" horiz-adv-x="578" 
d="M430 0h-283v1075h283v-1075zM683 1189h-190l-205 153l-205 -153h-186l250 327h286z" />
    <glyph glyph-name="idieresis" unicode="&#xef;" horiz-adv-x="578" 
d="M430 0h-283v1075h283v-1075zM671 1357q0 -32 -13 -60t-34.5 -50t-50.5 -34.5t-60 -12.5q-33 0 -62.5 12.5t-51.5 34.5t-35 50t-13 60q0 33 13 62t35 51t51.5 34.5t62.5 12.5q31 0 60 -12.5t50.5 -34.5t34.5 -51t13 -62zM229 1357q0 -32 -13 -60t-35 -50t-51 -34.5
t-61 -12.5t-61 12.5t-51 34.5t-35 50t-13 60q0 33 13 62t35 51t51 34.5t61 12.5t61 -12.5t51 -34.5t35 -51t13 -62z" />
    <glyph glyph-name="ntilde" unicode="&#xf1;" horiz-adv-x="1196" 
d="M1069 0h-283v582q0 72 -12 120t-35 76.5t-57 40.5t-78 12t-78 -12t-57.5 -40t-36 -74.5t-12.5 -116.5v-588h-283v1075h283v-71q37 38 102 66t150 28q103 0 177.5 -34.5t123.5 -98t72.5 -154.5t23.5 -205v-606zM1002 1507q0 -68 -17.5 -123t-48.5 -93t-74.5 -58.5
t-95.5 -20.5q-32 0 -57 3.5t-48 11t-47 19.5t-55 30q-23 13 -38.5 21t-27.5 12.5t-21 6t-19 1.5q-29 0 -45 -22t-25 -76h-184q0 68 17 122.5t48 92.5t74.5 58.5t95.5 20.5q32 0 57 -3t48 -10.5t47 -19.5t55 -30q23 -13 39 -21t27.5 -12.5t21 -6t19.5 -1.5q29 0 44.5 22
t24.5 76h185z" />
    <glyph glyph-name="oacute" unicode="&#xf3;" horiz-adv-x="1137" 
d="M1055 537q0 -124 -36.5 -227t-102 -177t-155 -115t-194.5 -41t-194 41t-153.5 115t-101 177t-36.5 227q0 123 36.5 226.5t101 177.5t153.5 115.5t194 41.5t194.5 -41.5t155 -115.5t102 -177.5t36.5 -226.5zM768 537q0 61 -12.5 113.5t-37.5 91.5t-62.5 61t-88.5 22
t-88 -22t-61.5 -60.5t-36.5 -91t-12 -114.5t12 -115t36.5 -91t61.5 -59.5t88 -21.5t88.5 23.5t62.5 63.5t37.5 92t12.5 108zM938 1546l-297 -327h-239l178 327h358z" />
    <glyph glyph-name="ograve" unicode="&#xf2;" horiz-adv-x="1137" 
d="M1055 537q0 -124 -36.5 -227t-102 -177t-155 -115t-194.5 -41t-194 41t-153.5 115t-101 177t-36.5 227q0 123 36.5 226.5t101 177.5t153.5 115.5t194 41.5t194.5 -41.5t155 -115.5t102 -177.5t36.5 -226.5zM768 537q0 61 -12.5 113.5t-37.5 91.5t-62.5 61t-88.5 22
t-88 -22t-61.5 -60.5t-36.5 -91t-12 -114.5t12 -115t36.5 -91t61.5 -59.5t88 -21.5t88.5 23.5t62.5 63.5t37.5 92t12.5 108zM717 1219h-239l-297 327h358z" />
    <glyph glyph-name="ocircumflex" unicode="&#xf4;" horiz-adv-x="1137" 
d="M1055 537q0 -124 -36.5 -227t-102 -177t-155 -115t-194.5 -41t-194 41t-153.5 115t-101 177t-36.5 227q0 123 36.5 226.5t101 177.5t153.5 115.5t194 41.5t194.5 -41.5t155 -115.5t102 -177.5t36.5 -226.5zM768 537q0 61 -12.5 113.5t-37.5 91.5t-62.5 61t-88.5 22
t-88 -22t-61.5 -60.5t-36.5 -91t-12 -114.5t12 -115t36.5 -91t61.5 -59.5t88 -21.5t88.5 23.5t62.5 63.5t37.5 92t12.5 108zM960 1200h-190l-205 153l-205 -153h-186l250 327h286z" />
    <glyph glyph-name="odieresis" unicode="&#xf6;" horiz-adv-x="1137" 
d="M1055 537q0 -124 -36.5 -227t-102 -177t-155 -115t-194.5 -41t-194 41t-153.5 115t-101 177t-36.5 227q0 123 36.5 226.5t101 177.5t153.5 115.5t194 41.5t194.5 -41.5t155 -115.5t102 -177.5t36.5 -226.5zM768 537q0 61 -12.5 113.5t-37.5 91.5t-62.5 61t-88.5 22
t-88 -22t-61.5 -60.5t-36.5 -91t-12 -114.5t12 -115t36.5 -91t61.5 -59.5t88 -21.5t88.5 23.5t62.5 63.5t37.5 92t12.5 108zM948 1357q0 -32 -13 -60t-34.5 -50t-50.5 -34.5t-60 -12.5q-33 0 -62.5 12.5t-51.5 34.5t-35 50t-13 60q0 33 13 62t35 51t51.5 34.5t62.5 12.5
q31 0 60 -12.5t50.5 -34.5t34.5 -51t13 -62zM506 1357q0 -32 -13 -60t-35 -50t-51 -34.5t-61 -12.5t-61 12.5t-51 34.5t-35 50t-13 60q0 33 13 62t35 51t51 34.5t61 12.5t61 -12.5t51 -34.5t35 -51t13 -62z" />
    <glyph glyph-name="otilde" unicode="&#xf5;" horiz-adv-x="1137" 
d="M1055 537q0 -124 -36.5 -227t-102 -177t-155 -115t-194.5 -41t-194 41t-153.5 115t-101 177t-36.5 227q0 123 36.5 226.5t101 177.5t153.5 115.5t194 41.5t194.5 -41.5t155 -115.5t102 -177.5t36.5 -226.5zM768 537q0 61 -12.5 113.5t-37.5 91.5t-62.5 61t-88.5 22
t-88 -22t-61.5 -60.5t-36.5 -91t-12 -114.5t12 -115t36.5 -91t61.5 -59.5t88 -21.5t88.5 23.5t62.5 63.5t37.5 92t12.5 108zM967 1507q0 -68 -17.5 -123t-48.5 -93t-74.5 -58.5t-95.5 -20.5q-32 0 -57 3.5t-48 11t-47 19.5t-55 30q-23 13 -38.5 21t-27.5 12.5t-21 6t-19 1.5
q-29 0 -45 -22t-25 -76h-184q0 68 17 122.5t48 92.5t74.5 58.5t95.5 20.5q32 0 57 -3t48 -10.5t47 -19.5t55 -30q23 -13 39 -21t27.5 -12.5t21 -6t19.5 -1.5q29 0 44.5 22t24.5 76h185z" />
    <glyph glyph-name="uacute" unicode="&#xfa;" horiz-adv-x="1196" 
d="M1059 0h-283v72q-37 -39 -102 -67t-150 -28q-103 0 -178 34.5t-123.5 98t-72 154.5t-23.5 205v606h283v-581q0 -72 12 -120.5t35 -77t57 -40.5t78 -12t78 12t57.5 40t36 74.5t12.5 116.5v588h283v-1075zM964 1546l-297 -327h-239l178 327h358z" />
    <glyph glyph-name="ugrave" unicode="&#xf9;" horiz-adv-x="1196" 
d="M1059 0h-283v72q-37 -39 -102 -67t-150 -28q-103 0 -178 34.5t-123.5 98t-72 154.5t-23.5 205v606h283v-581q0 -72 12 -120.5t35 -77t57 -40.5t78 -12t78 12t57.5 40t36 74.5t12.5 116.5v588h283v-1075zM743 1219h-239l-297 327h358z" />
    <glyph glyph-name="ucircumflex" unicode="&#xfb;" horiz-adv-x="1196" 
d="M1059 0h-283v72q-37 -39 -102 -67t-150 -28q-103 0 -178 34.5t-123.5 98t-72 154.5t-23.5 205v606h283v-581q0 -72 12 -120.5t35 -77t57 -40.5t78 -12t78 12t57.5 40t36 74.5t12.5 116.5v588h283v-1075zM987 1219h-190l-205 153l-205 -153h-186l250 327h286z" />
    <glyph glyph-name="udieresis" unicode="&#xfc;" horiz-adv-x="1196" 
d="M1059 0h-283v72q-37 -39 -102 -67t-150 -28q-103 0 -178 34.5t-123.5 98t-72 154.5t-23.5 205v606h283v-581q0 -72 12 -120.5t35 -77t57 -40.5t78 -12t78 12t57.5 40t36 74.5t12.5 116.5v588h283v-1075zM975 1376q0 -32 -13 -60t-34.5 -50t-50.5 -34.5t-60 -12.5
q-33 0 -62.5 12.5t-51.5 34.5t-35 50t-13 60q0 33 13 62t35 51t51.5 34.5t62.5 12.5q31 0 60 -12.5t50.5 -34.5t34.5 -51t13 -62zM533 1376q0 -32 -13 -60t-35 -50t-51 -34.5t-61 -12.5t-61 12.5t-51 34.5t-35 50t-13 60q0 33 13 62t35 51t51 34.5t61 12.5t61 -12.5
t51 -34.5t35 -51t13 -62z" />
    <glyph glyph-name="dagger" unicode="&#x2020;" horiz-adv-x="1217" 
d="M1104 750h-356v-955h-279v955h-356v256h356v428h279v-428h356v-256z" />
    <glyph glyph-name="degree" unicode="&#xb0;" horiz-adv-x="995" 
d="M903 1053q0 -87 -31 -161.5t-85.5 -129.5t-128.5 -86t-160 -31t-160 31t-128.5 86t-86 129.5t-31.5 161.5q0 84 31.5 157.5t86 128t128.5 86t160 31.5t160 -31.5t128.5 -86t85.5 -128t31 -157.5zM688 1053q0 39 -14.5 73.5t-40 60.5t-60.5 41t-75 15t-75 -15t-60.5 -41
t-40.5 -60.5t-15 -73.5q0 -42 15 -77.5t40.5 -61.5t60.5 -41t75 -15t75 15t60.5 41t40 61.5t14.5 77.5z" />
    <glyph glyph-name="cent" unicode="&#xa2;" horiz-adv-x="1100" 
d="M1026 410q-31 -42 -64.5 -78.5t-72.5 -65.5t-84 -50.5t-98 -33.5v-205h-277v218q-76 25 -140 74t-110 118t-72 155.5t-26 186.5q0 99 25 185t70.5 155t110 119t142.5 76v170h277v-154q54 -11 99.5 -32.5t84.5 -51t72 -66t61 -77.5l-186 -176q-24 34 -49.5 62t-54.5 48
t-64 31.5t-78 11.5q-51 0 -92 -19.5t-70 -58t-45 -94.5t-16 -129q0 -71 16 -126.5t45 -93.5t70 -58.5t92 -20.5q41 0 75.5 9t65 26.5t58 43t55.5 58.5z" />
    <glyph glyph-name="sterling" unicode="&#xa3;" horiz-adv-x="1372" 
d="M1278 1262l-172 -211q-74 66 -166 97.5t-188 31.5q-104 0 -155.5 -37.5t-51.5 -102.5q0 -38 16 -74.5t35 -68.5q6 -11 14 -25.5t16 -29.5t14.5 -30.5t10.5 -27.5h314v-231h-293q-4 -46 -13.5 -85t-25.5 -75.5t-40 -72t-56 -74.5h712v-246h-1069v209q87 69 136.5 154
t62.5 190h-199v231h162q-12 25 -27 49.5t-24 43.5q-22 40 -41 94t-19 108q0 91 35.5 161t102.5 118t164.5 73t222.5 25q148 0 282 -49t240 -145z" />
    <glyph glyph-name="section" unicode="&#xa7;" horiz-adv-x="1434" 
d="M1321 514q0 -64 -17.5 -115.5t-47.5 -92.5t-71 -73t-89 -57q41 -69 41 -178q0 -71 -27.5 -132t-81.5 -106t-133.5 -70.5t-183.5 -25.5q-125 0 -238 36.5t-203 102.5l142 197q38 -27 80 -46t83.5 -31t81 -17.5t72.5 -5.5q41 0 68.5 7.5t44 20t23.5 30t7 38.5q0 24 -13 42
t-49.5 37t-103 42.5t-174.5 58.5q-101 34 -179.5 71.5t-131.5 87.5t-80.5 115.5t-27.5 155.5q0 64 17.5 115.5t47.5 93t70.5 73.5t87.5 56q-20 35 -29.5 79t-9.5 99q0 71 27.5 132t81 106t133 70.5t184.5 25.5q125 0 237.5 -36.5t202.5 -102.5l-141 -197q-38 27 -80 46
t-83.5 31.5t-81 18t-72.5 5.5q-41 0 -68.5 -7.5t-44.5 -20t-24 -30.5t-7 -39q0 -24 13 -42t49.5 -37t103 -42.5t174.5 -58.5q101 -34 179.5 -71.5t132 -87t81 -115.5t27.5 -156zM1047 494q0 43 -24.5 74.5t-64.5 55.5t-91 43t-105 38q-74 24 -135 47.5t-109 46.5
q-65 -28 -98 -69t-33 -103q0 -44 24.5 -75.5t64 -55.5t91 -43t105.5 -37q74 -25 134.5 -48t108.5 -46q65 27 98.5 68.5t33.5 103.5z" />
    <glyph glyph-name="bullet" unicode="&#x2022;" horiz-adv-x="1004" 
d="M870 750q0 -78 -28.5 -145t-78 -117t-116.5 -78.5t-145 -28.5t-145 28.5t-117 78.5t-78.5 117t-28.5 145q0 77 28.5 145t78.5 118.5t117 79.5t145 29t145 -29t116.5 -79.5t78 -118.5t28.5 -145z" />
    <glyph glyph-name="paragraph" unicode="&#xb6;" horiz-adv-x="1483" 
d="M1300 -379h-233v1596h-131v-1596h-234v914h-141q-95 0 -179 29.5t-148 87t-101 141.5t-37 192t37.5 191.5t101 140.5t148 87t178.5 30h739v-1813z" />
    <glyph glyph-name="germandbls" unicode="&#xdf;" horiz-adv-x="1200" 
d="M1118 453q0 -221 -123 -337t-374 -116h-46v256h37q103 0 161 46t58 151q0 114 -59 171.5t-184 57.5h-13v246h11q63 0 99 40t36 109q0 63 -37 103.5t-117 40.5q-44 0 -72.5 -11.5t-45 -33t-23 -52.5t-6.5 -71v-1307l-283 -141v1462q0 115 31 195t88 130t137 72.5t178 22.5
q91 0 170.5 -24.5t138.5 -72.5t93.5 -119t34.5 -163q0 -113 -50.5 -183.5t-140.5 -101.5q58 -11 112 -37.5t96 -71t67.5 -109t25.5 -152.5z" />
    <glyph glyph-name="registered" unicode="&#xae;" horiz-adv-x="1081" 
d="M750 1120q0 -62 -25 -94t-63 -47l92 -184h-133l-82 168h-56v-168h-123v479h224q35 0 65.5 -9.5t53 -28.5t35 -48t12.5 -68zM631 1118q0 26 -14 36.5t-42 10.5h-92v-98h92q56 0 56 51zM971 1026q0 -92 -33 -171t-91 -136.5t-137 -90t-171 -32.5t-170 32.5t-135.5 90
t-90 136.5t-32.5 171t32.5 171t90 136.5t135.5 90t170 32.5t171 -32.5t137 -90t91 -136.5t33 -171zM874 1026q0 72 -25 133.5t-69 106.5t-106 70.5t-135 25.5t-134.5 -25.5t-105.5 -70.5t-69 -106.5t-25 -133.5t25 -134t69 -107t105.5 -71t134.5 -26t135 26t106 71t69 107
t25 134z" />
    <glyph glyph-name="copyright" unicode="&#xa9;" horiz-adv-x="1081" 
d="M971 1026q0 -92 -33 -171t-91 -136.5t-137 -90t-171 -32.5t-170 32.5t-135.5 90t-90 136.5t-32.5 171t32.5 171t90 136.5t135.5 90t170 32.5t171 -32.5t137 -90t91 -136.5t33 -171zM618 1100q-14 28 -31 41.5t-42 13.5q-40 0 -61 -32.5t-21 -94.5q0 -60 22 -92.5
t60 -32.5q23 0 42.5 16.5t41.5 47.5l94 -66q-17 -28 -35 -50.5t-39 -38t-47 -24t-59 -8.5q-46 0 -84.5 18t-66 50.5t-43 78t-15.5 101.5q0 55 15.5 100.5t43.5 78.5t67 51t85 18q66 0 111 -32t71 -83zM874 1026q0 72 -25 133.5t-69 106.5t-106 70.5t-135 25.5t-134.5 -25.5
t-105.5 -70.5t-69 -106.5t-25 -133.5t25 -134t69 -107t105.5 -71t134.5 -26t135 26t106 71t69 107t25 134z" />
    <glyph glyph-name="trademark" unicode="&#x2122;" horiz-adv-x="1700" 
d="M635 1266h-201v-639h-194v639h-201v168h596v-168zM1616 627h-182v399q0 22 2 45t2 45q-8 -18 -18 -38t-19 -40l-211 -436l-207 436q-9 19 -18 39t-17 37q2 -22 3 -45t1 -43v-399h-182v807h193l174 -349l17 -34t17 -35.5t14 -34t9 -29.5q8 26 24 62.5t33 70.5l170 349h195
v-807z" />
    <glyph glyph-name="acute" unicode="&#xb4;" horiz-adv-x="1024" 
d="M819 1546l-297 -327h-239l178 327h358z" />
    <glyph glyph-name="dieresis" unicode="&#xa8;" horiz-adv-x="1024" 
d="M893 1376q0 -32 -13 -60t-34.5 -50t-50.5 -34.5t-60 -12.5q-33 0 -62.5 12.5t-51.5 34.5t-35 50t-13 60q0 33 13 62t35 51t51.5 34.5t62.5 12.5q31 0 60 -12.5t50.5 -34.5t34.5 -51t13 -62zM451 1376q0 -32 -13 -60t-35 -50t-51 -34.5t-61 -12.5t-61 12.5t-51 34.5
t-35 50t-13 60q0 33 13 62t35 51t51 34.5t61 12.5t61 -12.5t51 -34.5t35 -51t13 -62z" />
    <glyph glyph-name="notequal" unicode="&#x2260;" 
d="M1597 717l-344 -271q-18 -9 -33.5 -9t-23.5 5q-20 13 -25.5 29.5t0.5 44.5l41 92h-288v-254l98 39q23 10 39 4t29 -26q5 -8 6 -24.5t-13 -33.5l-264 -344l-270 344q-9 17 -9 33.5t5 24.5q12 18 28.5 24t42.5 -2l95 -39v254h-285l41 -94q14 -47 -25 -72q-8 -5 -23 -5
t-32 9l-346 271l346 264q17 14 32 12.5t23 -6.5q22 -12 26.5 -28t-1.5 -39l-41 -99h285v258l-95 -39q-24 -11 -41.5 -3.5t-29.5 26.5q-5 8 -5 24t9 33l270 344l264 -344q14 -17 13 -33t-6 -24q-13 -20 -29 -26t-39 3l-98 39v-258h288l-41 99q-6 23 -1.5 39t26.5 28
q8 5 22.5 5.5t34.5 -11.5z" />
    <glyph glyph-name="AE" unicode="&#xc6;" horiz-adv-x="2126" 
d="M2005 0h-973v256h-510l-166 -256h-327l962 1434h983v-275h-667v-258h370v-270h-370v-357h698v-274zM1036 1069q-12 -24 -31.5 -59t-42 -73t-46.5 -75t-44 -67l-186 -287h346v262q0 31 0.5 74t1.5 85.5t1.5 80.5t0.5 59z" />
    <glyph glyph-name="Oslash" unicode="&#xd8;" horiz-adv-x="1473" 
d="M1354 717q0 -164 -42.5 -300t-122.5 -233.5t-195.5 -152t-262.5 -54.5q-56 0 -108.5 10.5t-102.5 28.5l-57 -118h-270l124 254q-97 99 -152.5 242t-55.5 323q0 163 42 299t122 234t195.5 152t262.5 54q108 0 203 -37l57 117h271l-121 -250q99 -97 156 -243t57 -326z
M815 1176q-20 5 -40.5 7.5t-43.5 2.5q-89 0 -153 -36t-105 -99.5t-60.5 -149t-19.5 -184.5q0 -84 14 -158t42 -133zM1069 717q0 86 -14.5 162.5t-46.5 138.5l-369 -758q43 -12 92 -12q89 0 153 36t105 99.5t60.5 149t19.5 184.5z" />
    <glyph glyph-name="infinity" unicode="&#x221e;" 
d="M1597 717l-344 -271q-18 -9 -33.5 -9t-23.5 5q-20 13 -25.5 29.5t0.5 44.5l41 92h-288v-254l98 39q23 10 39 4t29 -26q5 -8 6 -24.5t-13 -33.5l-264 -344l-270 344q-9 17 -9 33.5t5 24.5q12 18 28.5 24t42.5 -2l95 -39v254h-285l41 -94q14 -47 -25 -72q-8 -5 -23 -5
t-32 9l-346 271l346 264q17 14 32 12.5t23 -6.5q22 -12 26.5 -28t-1.5 -39l-41 -99h285v258l-95 -39q-24 -11 -41.5 -3.5t-29.5 26.5q-5 8 -5 24t9 33l270 344l264 -344q14 -17 13 -33t-6 -24q-13 -20 -29 -26t-39 3l-98 39v-258h288l-41 99q-6 23 -1.5 39t26.5 28
q8 5 22.5 5.5t34.5 -11.5z" />
    <glyph glyph-name="plusminus" unicode="&#xb1;" 
d="M1597 717l-344 -271q-18 -9 -33.5 -9t-23.5 5q-20 13 -25.5 29.5t0.5 44.5l41 92h-288v-254l98 39q23 10 39 4t29 -26q5 -8 6 -24.5t-13 -33.5l-264 -344l-270 344q-9 17 -9 33.5t5 24.5q12 18 28.5 24t42.5 -2l95 -39v254h-285l41 -94q14 -47 -25 -72q-8 -5 -23 -5
t-32 9l-346 271l346 264q17 14 32 12.5t23 -6.5q22 -12 26.5 -28t-1.5 -39l-41 -99h285v258l-95 -39q-24 -11 -41.5 -3.5t-29.5 26.5q-5 8 -5 24t9 33l270 344l264 -344q14 -17 13 -33t-6 -24q-13 -20 -29 -26t-39 3l-98 39v-258h288l-41 99q-6 23 -1.5 39t26.5 28
q8 5 22.5 5.5t34.5 -11.5z" />
    <glyph glyph-name="lessequal" unicode="&#x2264;" 
d="M1597 717l-344 -271q-18 -9 -33.5 -9t-23.5 5q-20 13 -25.5 29.5t0.5 44.5l41 92h-288v-254l98 39q23 10 39 4t29 -26q5 -8 6 -24.5t-13 -33.5l-264 -344l-270 344q-9 17 -9 33.5t5 24.5q12 18 28.5 24t42.5 -2l95 -39v254h-285l41 -94q14 -47 -25 -72q-8 -5 -23 -5
t-32 9l-346 271l346 264q17 14 32 12.5t23 -6.5q22 -12 26.5 -28t-1.5 -39l-41 -99h285v258l-95 -39q-24 -11 -41.5 -3.5t-29.5 26.5q-5 8 -5 24t9 33l270 344l264 -344q14 -17 13 -33t-6 -24q-13 -20 -29 -26t-39 3l-98 39v-258h288l-41 99q-6 23 -1.5 39t26.5 28
q8 5 22.5 5.5t34.5 -11.5z" />
    <glyph glyph-name="greaterequal" unicode="&#x2265;" 
d="M1597 717l-344 -271q-18 -9 -33.5 -9t-23.5 5q-20 13 -25.5 29.5t0.5 44.5l41 92h-288v-254l98 39q23 10 39 4t29 -26q5 -8 6 -24.5t-13 -33.5l-264 -344l-270 344q-9 17 -9 33.5t5 24.5q12 18 28.5 24t42.5 -2l95 -39v254h-285l41 -94q14 -47 -25 -72q-8 -5 -23 -5
t-32 9l-346 271l346 264q17 14 32 12.5t23 -6.5q22 -12 26.5 -28t-1.5 -39l-41 -99h285v258l-95 -39q-24 -11 -41.5 -3.5t-29.5 26.5q-5 8 -5 24t9 33l270 344l264 -344q14 -17 13 -33t-6 -24q-13 -20 -29 -26t-39 3l-98 39v-258h288l-41 99q-6 23 -1.5 39t26.5 28
q8 5 22.5 5.5t34.5 -11.5z" />
    <glyph glyph-name="yen" unicode="&#xa5;" horiz-adv-x="1401" 
d="M1356 1434l-518 -877v-100h333v-242h-333v-215h-275v215h-334v242h334v94l-518 883h330l188 -340q18 -32 39 -72t40.5 -79.5t35.5 -74t24 -55.5q9 21 25 55t35.5 73t40.5 79.5t39 73.5l188 340h326z" />
    <glyph glyph-name="mu" unicode="&#xb5;" 
d="M1597 711l-415 -314q-23 -14 -43 -13t-31 9q-22 16 -29 35.5t2 50.5l29 96h-582l29 -100q8 -29 2 -47.5t-29 -34.5q-11 -8 -30.5 -9.5t-42.5 15.5l-416 308l416 313q23 14 42.5 13t30.5 -9q22 -15 29 -35t-2 -51l-29 -96h582l-29 100q-8 29 -2 48t29 34q5 4 13 6.5
t17.5 2.5t20.5 -3.5t23 -11.5z" />
    <glyph glyph-name="mu" unicode="&#x3bc;" 
d="M1597 711l-415 -314q-23 -14 -43 -13t-31 9q-22 16 -29 35.5t2 50.5l29 96h-582l29 -100q8 -29 2 -47.5t-29 -34.5q-11 -8 -30.5 -9.5t-42.5 15.5l-416 308l416 313q23 14 42.5 13t30.5 -9q22 -15 29 -35t-2 -51l-29 -96h582l-29 100q-8 29 -2 48t29 34q5 4 13 6.5
t17.5 2.5t20.5 -3.5t23 -11.5z" />
    <glyph glyph-name="partialdiff" unicode="&#x2202;" horiz-adv-x="901" 
d="M766 459q8 -11 9 -31t-13 -43l-313 -416l-308 416q-17 23 -15.5 43t9.5 31q16 23 34.5 28.5t47.5 -2.5l100 -28v520l-100 -29q-29 -8 -47.5 -2t-34.5 29q-8 10 -9.5 30.5t15.5 43.5l308 415l313 -415q14 -23 13 -43t-9 -31q-16 -22 -35.5 -29t-50.5 2l-96 29v-520l96 28
q31 10 50.5 2.5t35.5 -28.5z" />
    <glyph glyph-name="summation" unicode="&#x2211;" 
d="M1597 717l-344 -271q-18 -9 -33.5 -9t-23.5 5q-20 13 -25.5 29.5t0.5 44.5l41 92h-288v-254l98 39q23 10 39 4t29 -26q5 -8 6 -24.5t-13 -33.5l-264 -344l-270 344q-9 17 -9 33.5t5 24.5q12 18 28.5 24t42.5 -2l95 -39v254h-285l41 -94q14 -47 -25 -72q-8 -5 -23 -5
t-32 9l-346 271l346 264q17 14 32 12.5t23 -6.5q22 -12 26.5 -28t-1.5 -39l-41 -99h285v258l-95 -39q-24 -11 -41.5 -3.5t-29.5 26.5q-5 8 -5 24t9 33l270 344l264 -344q14 -17 13 -33t-6 -24q-13 -20 -29 -26t-39 3l-98 39v-258h288l-41 99q-6 23 -1.5 39t26.5 28
q8 5 22.5 5.5t34.5 -11.5z" />
    <glyph glyph-name="product" unicode="&#x220f;" 
d="M1597 717l-344 -271q-18 -9 -33.5 -9t-23.5 5q-20 13 -25.5 29.5t0.5 44.5l41 92h-288v-254l98 39q23 10 39 4t29 -26q5 -8 6 -24.5t-13 -33.5l-264 -344l-270 344q-9 17 -9 33.5t5 24.5q12 18 28.5 24t42.5 -2l95 -39v254h-285l41 -94q14 -47 -25 -72q-8 -5 -23 -5
t-32 9l-346 271l346 264q17 14 32 12.5t23 -6.5q22 -12 26.5 -28t-1.5 -39l-41 -99h285v258l-95 -39q-24 -11 -41.5 -3.5t-29.5 26.5q-5 8 -5 24t9 33l270 344l264 -344q14 -17 13 -33t-6 -24q-13 -20 -29 -26t-39 3l-98 39v-258h288l-41 99q-6 23 -1.5 39t26.5 28
q8 5 22.5 5.5t34.5 -11.5z" />
    <glyph glyph-name="pi" unicode="&#x3c0;" horiz-adv-x="1712" 
d="M1595 717q0 -105 -25.5 -200.5t-72.5 -178t-114 -149t-149 -114t-177.5 -73t-200.5 -25.5q-158 0 -293 56.5t-234 156t-155.5 234.5t-56.5 293q0 105 25.5 200.5t72.5 177.5t114 149t149 114t177.5 72.5t200.5 25.5t200.5 -25.5t177.5 -72.5t149 -114t114 -149
t72.5 -177.5t25.5 -200.5zM1464 717q0 130 -46.5 241t-128 192.5t-192.5 128t-241 46.5t-241 -46.5t-192.5 -128t-128 -192.5t-46.5 -241t46.5 -241t128 -192.5t192.5 -128t241 -46.5t241 46.5t192.5 128t128 192.5t46.5 241zM1223 864q0 -69 -22 -118.5t-61 -81.5
t-92.5 -47t-115.5 -15h-168v-289h-170v807h352q57 0 107.5 -16t88 -47.5t59.5 -80t22 -112.5zM1049 862q0 54 -30.5 78.5t-84.5 24.5h-170v-211h170q57 0 86 28t29 80z" />
    <glyph glyph-name="integral" unicode="&#x222b;" horiz-adv-x="1151" 
d="M1010 0h-283v68q-34 -36 -89 -63.5t-138 -27.5q-86 0 -162 33.5t-133 103.5t-90 178.5t-33 258.5q0 120 28 220.5t81 173t131 113t178 40.5q71 0 130 -24.5t97 -59.5v61h283v-1075zM727 334v405q-66 92 -190 92q-82 0 -125 -69t-43 -205q0 -83 13 -142t37 -97t58 -56
t76 -18q33 0 58.5 6.5t46 18.5t37.5 28.5t32 36.5z" />
    <glyph glyph-name="ordfeminine" unicode="&#xaa;" horiz-adv-x="977" 
d="M850 565h-223v64q-35 -37 -87 -58.5t-114 -21.5q-61 0 -119.5 18.5t-104.5 57t-74 96.5t-28 137q0 72 27.5 126.5t75.5 90.5t112.5 54t139.5 18q60 0 102 -10.5t70 -24.5v43q0 48 -33 81.5t-96 33.5q-39 0 -70.5 -3t-59 -10t-54.5 -18.5t-58 -28.5l-86 160q38 21 74.5 37
t75.5 27t82 16.5t96 5.5q79 0 144 -20t111 -59t71.5 -96t25.5 -130v-586zM627 821v113q-32 18 -68 26.5t-96 8.5q-66 0 -101.5 -28.5t-35.5 -82.5q0 -23 7 -44.5t23.5 -38.5t42.5 -27.5t64 -10.5q28 0 53 7.5t46.5 19.5t38 27t26.5 30z" />
    <glyph glyph-name="ordmasculine" unicode="&#xba;" horiz-adv-x="1006" 
d="M897 1001q0 -100 -30 -183t-82.5 -143t-125 -93t-157.5 -33q-86 0 -158 33t-124 93t-81.5 143t-29.5 183t29.5 183.5t81.5 144t124 94t158 33.5q85 0 157.5 -33.5t125 -94t82.5 -144t30 -183.5zM664 1001q0 50 -10 93t-30.5 74.5t-51 49t-70.5 17.5q-41 0 -71.5 -17.5
t-50.5 -48.5t-30 -74t-10 -94t10 -93t30 -73t50.5 -48t71.5 -17q40 0 70.5 19t51 51.5t30.5 74t10 86.5z" />
    <glyph glyph-name="Omega" unicode="&#x3a9;" horiz-adv-x="901" 
d="M766 975q-16 -22 -35.5 -29t-50.5 2l-96 29v-977h-267v977l-100 -29q-29 -8 -47.5 -2t-34.5 29q-8 10 -9.5 30.5t15.5 43.5l308 415l313 -415q14 -23 13 -43t-9 -31z" />
    <glyph glyph-name="Omega" unicode="&#x2126;" horiz-adv-x="901" 
d="M766 975q-16 -22 -35.5 -29t-50.5 2l-96 29v-977h-267v977l-100 -29q-29 -8 -47.5 -2t-34.5 29q-8 10 -9.5 30.5t15.5 43.5l308 415l313 -415q14 -23 13 -43t-9 -31z" />
    <glyph glyph-name="ae" unicode="&#xe6;" horiz-adv-x="1726" 
d="M1638 537q0 -31 -1 -53t-3 -38h-643q4 -55 24.5 -93.5t51.5 -62.5t69 -35t76 -11q59 0 106.5 20t78.5 55l200 -167q-32 -42 -76 -74.5t-94.5 -55t-105.5 -34t-109 -11.5q-127 0 -220.5 45t-155.5 119q-77 -86 -160.5 -125t-188.5 -39q-75 0 -147 23.5t-128.5 70.5
t-91 119t-34.5 170q0 89 34 156t93 111.5t138.5 67t170.5 22.5q75 0 124 -13t83 -30v53q0 28 -9.5 53t-29 44t-48 29.5t-67.5 10.5q-48 0 -86.5 -3.5t-72 -12t-66 -22t-69.5 -33.5l-109 196q47 27 91.5 47.5t92 34t101 20.5t118.5 7q58 0 106 -8t87 -24t71 -39t60 -54
q53 57 124.5 91t162.5 34q108 0 192 -44.5t141.5 -121t88 -178.5t30.5 -217zM1364 659q-3 36 -15.5 71t-36 62t-58.5 43.5t-83 16.5q-38 0 -69 -15t-53.5 -41t-36 -61t-17.5 -76h369zM729 315v136q-18 11 -37 19.5t-42 14t-51.5 8.5t-66.5 3q-80 0 -121.5 -35.5
t-41.5 -100.5q0 -28 8.5 -54t28 -45.5t50.5 -31.5t76 -12q35 0 65.5 8t56 21.5t44.5 31.5t31 37z" />
    <glyph glyph-name="oslash" unicode="&#xf8;" horiz-adv-x="1137" 
d="M1055 537q0 -124 -36.5 -227t-102 -177t-155 -115t-194.5 -41q-42 0 -81.5 7.5t-77.5 19.5l-56 -106h-252l123 231q-66 74 -103.5 177.5t-37.5 230.5q0 123 36.5 226.5t101 177.5t153.5 115.5t194 41.5q42 0 80.5 -6.5t75.5 -20.5l55 107h252l-121 -230
q69 -75 107.5 -179.5t38.5 -231.5zM621 858q-26 6 -54 6q-56 0 -97 -25.5t-68 -70t-40.5 -104t-13.5 -127.5q0 -44 5 -82.5t16 -73.5zM788 537q0 89 -24 163l-254 -481q14 -5 28 -6.5t29 -1.5q56 0 97.5 28t69 73.5t41 104t13.5 120.5z" />
    <glyph glyph-name="questiondown" unicode="&#xbf;" horiz-adv-x="1196" 
d="M819 1282q0 -35 -14 -66.5t-38 -55.5t-55.5 -38t-66.5 -14t-66.5 14t-55.5 38t-38 55.5t-14 66.5t14 66.5t38 55.5t55.5 38t66.5 14t66.5 -14t55.5 -38t38 -55.5t14 -66.5zM1151 215q-47 -49 -104 -92.5t-124.5 -75.5t-146 -51t-168.5 -19q-117 0 -214.5 25.5t-167.5 77
t-109 130t-39 185.5q0 72 18.5 127t48 96t66.5 69t74 46q64 31 106 57t66.5 53.5t35.5 61t13 78.5h280q0 -73 -12.5 -133t-45 -111t-88 -94.5t-142.5 -83.5q-39 -18 -64.5 -33.5t-40.5 -33t-21.5 -38.5t-6.5 -48q0 -36 13.5 -63.5t42.5 -47t75.5 -29.5t111.5 -10
q58 0 108.5 13t94.5 36t82.5 54.5t73.5 68.5z" />
    <glyph glyph-name="exclamdown" unicode="&#xa1;" horiz-adv-x="696" 
d="M522 1282q0 -35 -14 -66.5t-38 -55.5t-55.5 -38t-66.5 -14t-66.5 14t-55.5 38t-38 55.5t-14 66.5t14 66.5t38 55.5t55.5 38t66.5 14t66.5 -14t55.5 -38t38 -55.5t14 -66.5zM492 0h-287v590l47 393h192l48 -393v-590z" />
    <glyph glyph-name="logicalnot" unicode="&#xac;" horiz-adv-x="1331" 
d="M1290 711l-416 -314q-23 -14 -42.5 -13t-30.5 9q-22 16 -29 35.5t2 50.5l29 96h-711v267h711l-29 100q-8 29 -2 48t29 34q11 8 30.5 9.5t42.5 -15.5z" />
    <glyph glyph-name="radical" unicode="&#x221a;" horiz-adv-x="1386" 
d="M1313 1434l-576 -1434h-305l-354 696h305l82 -166q19 -38 37 -76.5t33 -73t27.5 -64t21.5 -50.5q7 22 18 53.5t24 67.5t27.5 75t28.5 77l334 895h297z" />
    <glyph glyph-name="florin" unicode="&#x192;" horiz-adv-x="854" 
d="M727 1204q-22 11 -44.5 17t-53.5 6q-63 0 -84 -21t-21 -65v-66h183v-260h-183v-1069l-282 -141v1210h-129v260h129v99q0 150 79.5 216t227.5 66q106 0 178 -31v-221z" />
    <glyph glyph-name="approxequal" unicode="&#x2248;" horiz-adv-x="901" 
d="M766 459q8 -11 9 -31t-13 -43l-313 -416l-308 416q-17 23 -15.5 43t9.5 31q16 23 34.5 28.5t47.5 -2.5l100 -28v977h267v-977l96 28q31 10 50.5 2.5t35.5 -28.5z" />
    <glyph glyph-name="Delta" unicode="&#x394;" horiz-adv-x="1331" 
d="M1239 575h-711l29 -100q8 -29 2 -47.5t-29 -34.5q-11 -8 -30.5 -9.5t-42.5 15.5l-416 308l416 313q23 14 42.5 13t30.5 -9q22 -15 29 -35t-2 -51l-29 -96h711v-267z" />
    <glyph glyph-name="Delta" unicode="&#x2206;" horiz-adv-x="1331" 
d="M1239 575h-711l29 -100q8 -29 2 -47.5t-29 -34.5q-11 -8 -30.5 -9.5t-42.5 15.5l-416 308l416 313q23 14 42.5 13t30.5 -9q22 -15 29 -35t-2 -51l-29 -96h711v-267z" />
    <glyph glyph-name="guillemotleft" unicode="&#xab;" horiz-adv-x="1286" 
d="M1204 0h-293l-333 537l333 538h293l-323 -536zM688 0h-293l-334 537l334 538h293l-323 -536z" />
    <glyph glyph-name="guillemotright" unicode="&#xbb;" horiz-adv-x="1286" 
d="M1225 539l-334 -539h-293l324 537l-324 538h293zM709 539l-334 -539h-293l324 537l-324 538h293z" />
    <glyph glyph-name="ellipsis" unicode="&#x2026;" horiz-adv-x="1671" 
d="M1585 170q0 -39 -15.5 -74t-41.5 -61.5t-61 -42t-74 -15.5t-74.5 15.5t-61.5 42t-41.5 61.5t-15.5 74t15.5 74t41.5 61t61.5 41.5t74.5 15.5t74 -15.5t61 -41.5t41.5 -61t15.5 -74zM1028 170q0 -39 -15.5 -74t-41.5 -61.5t-61 -42t-74 -15.5t-74.5 15.5t-61.5 42
t-41.5 61.5t-15.5 74t15.5 74t41.5 61t61.5 41.5t74.5 15.5t74 -15.5t61 -41.5t41.5 -61t15.5 -74zM471 170q0 -39 -15.5 -74t-41.5 -61.5t-61 -42t-74 -15.5t-74.5 15.5t-61.5 42t-41.5 61.5t-15.5 74t15.5 74t41.5 61t61.5 41.5t74.5 15.5t74 -15.5t61 -41.5t41.5 -61
t15.5 -74z" />
    <glyph glyph-name="nonbreakingspace" unicode="&#xa0;" horiz-adv-x="297" 
 />
    <glyph glyph-name="Agrave" unicode="&#xc0;" horiz-adv-x="1536" 
d="M1454 0h-315l-113 319h-524l-113 -319h-307l549 1434h278zM928 592l-92 260q-22 63 -41.5 123t-30.5 100q-11 -40 -30.5 -100t-41.5 -123l-92 -260h328zM915 1526h-239l-297 327h358z" />
    <glyph glyph-name="Atilde" unicode="&#xc3;" horiz-adv-x="1536" 
d="M1454 0h-315l-113 319h-524l-113 -319h-307l549 1434h278zM928 592l-92 260q-22 63 -41.5 123t-30.5 100q-11 -40 -30.5 -100t-41.5 -123l-92 -260h328zM1174 1814q0 -68 -17.5 -123t-48.5 -93t-74.5 -58.5t-95.5 -20.5q-32 0 -57 3.5t-48 11t-47 19.5t-55 30
q-23 13 -38.5 21t-27.5 12.5t-21 6t-19 1.5q-29 0 -45 -22t-25 -76h-184q0 68 17 122.5t48 92.5t74.5 58.5t95.5 20.5q32 0 57 -3t48 -10.5t47 -19.5t55 -30q23 -13 39 -21t27.5 -12.5t21 -6t19.5 -1.5q29 0 44.5 22t24.5 76h185z" />
    <glyph glyph-name="Otilde" unicode="&#xd5;" horiz-adv-x="1473" 
d="M1368 719q0 -174 -46.5 -311.5t-130 -233t-200 -146.5t-256.5 -51q-141 0 -257 50t-199 145t-129 232t-46 311t46.5 311.5t130.5 233t201 146t257 50.5t255.5 -50t198.5 -145t129 -231.5t46 -310.5zM1073 715q0 109 -25 194t-70 143t-107.5 88.5t-137.5 30.5t-137 -29.5
t-105.5 -87t-67.5 -142t-24 -193.5t25 -194t70 -143.5t107.5 -89t137.5 -30.5t137 30t105.5 87.5t67.5 142t24 193.5zM1135 1814q0 -68 -17.5 -123t-48.5 -93t-74.5 -58.5t-95.5 -20.5q-32 0 -57 3.5t-48 11t-47 19.5t-55 30q-23 13 -38.5 21t-27.5 12.5t-21 6t-19 1.5
q-29 0 -45 -22t-25 -76h-184q0 68 17 122.5t48 92.5t74.5 58.5t95.5 20.5q32 0 57 -3t48 -10.5t47 -19.5t55 -30q23 -13 39 -21t27.5 -12.5t21 -6t19.5 -1.5q29 0 44.5 22t24.5 76h185z" />
    <glyph glyph-name="OE" unicode="&#x152;" horiz-adv-x="2161" 
d="M2040 0h-965v129q-24 -32 -57 -60t-75.5 -48.5t-95.5 -32t-116 -11.5q-147 0 -262.5 54.5t-195.5 152t-122 233.5t-42 300q0 163 42 299t122 234t195.5 152t262.5 54q64 0 116 -11t94 -31t75 -47.5t59 -61.5v129h934v-281h-688v-248h391v-278h-391v-346h719v-281z
M1059 717q0 96 -18.5 179t-58.5 144t-102 96t-149 35t-149 -35t-101.5 -96t-58.5 -144t-19 -179t19 -179t58.5 -144.5t101.5 -96.5t149 -35t149 35t102 96.5t58.5 144.5t18.5 179z" />
    <glyph glyph-name="oe" unicode="&#x153;" horiz-adv-x="1761" 
d="M1673 537q0 -31 -1 -53t-3 -38h-643q4 -55 24.5 -93.5t51.5 -62.5t69 -35t76 -11q59 0 106.5 20t78.5 55l200 -167q-32 -42 -76 -74.5t-94.5 -55t-105.5 -34t-109 -11.5q-125 0 -210.5 42.5t-141.5 111.5q-50 -72 -134 -113t-194 -41q-105 0 -194 41t-153.5 115t-101 177
t-36.5 227q0 123 36.5 226.5t101 177.5t153.5 115.5t194 41.5q107 0 193 -42t137 -116q58 72 137 115t187 43q107 0 191 -44.5t142 -121t88.5 -178.5t30.5 -217zM1399 659q-3 36 -15.5 71t-36 62t-58.5 43.5t-83 16.5q-38 0 -69 -15t-53.5 -41t-36 -61t-17.5 -76h369z
M768 537q0 61 -12.5 113.5t-37.5 91.5t-62.5 61t-88.5 22t-88 -22t-61.5 -60.5t-36.5 -91t-12 -114.5t12 -115t36.5 -91t61.5 -59.5t88 -21.5t88.5 23.5t62.5 63.5t37.5 92t12.5 108z" />
    <glyph glyph-name="endash" unicode="&#x2013;" horiz-adv-x="942" 
d="M829 612h-716v262h716v-262z" />
    <glyph glyph-name="emdash" unicode="&#x2014;" horiz-adv-x="1270" 
d="M1157 612h-1044v262h1044v-262z" />
    <glyph glyph-name="quotedblleft" unicode="&#x201c;" horiz-adv-x="1110" 
d="M985 1434l-29 -576h-333l168 576h194zM451 1434l-29 -576h-334l168 576h195z" />
    <glyph glyph-name="quotedblright" unicode="&#x201d;" horiz-adv-x="1110" 
d="M1022 1434l-168 -576h-195l29 576h334zM487 1434l-168 -576h-194l29 576h333z" />
    <glyph glyph-name="quoteleft" unicode="&#x2018;" horiz-adv-x="575" 
d="M451 1434l-29 -576h-334l168 576h195z" />
    <glyph glyph-name="quoteright" unicode="&#x2019;" horiz-adv-x="575" 
d="M487 1434l-168 -576h-194l29 576h333z" />
    <glyph glyph-name="divide" unicode="&#xf7;" 
d="M1597 717l-344 -271q-18 -9 -33.5 -9t-23.5 5q-20 13 -25.5 29.5t0.5 44.5l41 92h-288v-254l98 39q23 10 39 4t29 -26q5 -8 6 -24.5t-13 -33.5l-264 -344l-270 344q-9 17 -9 33.5t5 24.5q12 18 28.5 24t42.5 -2l95 -39v254h-285l41 -94q14 -47 -25 -72q-8 -5 -23 -5
t-32 9l-346 271l346 264q17 14 32 12.5t23 -6.5q22 -12 26.5 -28t-1.5 -39l-41 -99h285v258l-95 -39q-24 -11 -41.5 -3.5t-29.5 26.5q-5 8 -5 24t9 33l270 344l264 -344q14 -17 13 -33t-6 -24q-13 -20 -29 -26t-39 3l-98 39v-258h288l-41 99q-6 23 -1.5 39t26.5 28
q8 5 22.5 5.5t34.5 -11.5z" />
    <glyph glyph-name="lozenge" unicode="&#x25ca;" 
d="M1597 717l-344 -271q-18 -9 -33.5 -9t-23.5 5q-20 13 -25.5 29.5t0.5 44.5l41 92h-288v-254l98 39q23 10 39 4t29 -26q5 -8 6 -24.5t-13 -33.5l-264 -344l-270 344q-9 17 -9 33.5t5 24.5q12 18 28.5 24t42.5 -2l95 -39v254h-285l41 -94q14 -47 -25 -72q-8 -5 -23 -5
t-32 9l-346 271l346 264q17 14 32 12.5t23 -6.5q22 -12 26.5 -28t-1.5 -39l-41 -99h285v258l-95 -39q-24 -11 -41.5 -3.5t-29.5 26.5q-5 8 -5 24t9 33l270 344l264 -344q14 -17 13 -33t-6 -24q-13 -20 -29 -26t-39 3l-98 39v-258h288l-41 99q-6 23 -1.5 39t26.5 28
q8 5 22.5 5.5t34.5 -11.5z" />
    <glyph glyph-name="ydieresis" unicode="&#xff;" horiz-adv-x="1208" 
d="M1157 1075l-553 -1454h-278l143 379l-418 1075h311l177 -518q10 -31 20.5 -64.5t20 -65t16.5 -59t12 -46.5q5 20 12.5 47.5t16.5 58.5t19.5 64t21.5 65l176 518h303zM983 1357q0 -32 -13 -60t-34.5 -50t-50.5 -34.5t-60 -12.5q-33 0 -62.5 12.5t-51.5 34.5t-35 50t-13 60
q0 33 13 62t35 51t51.5 34.5t62.5 12.5q31 0 60 -12.5t50.5 -34.5t34.5 -51t13 -62zM541 1357q0 -32 -13 -60t-35 -50t-51 -34.5t-61 -12.5t-61 12.5t-51 34.5t-35 50t-13 60q0 33 13 62t35 51t51 34.5t61 12.5t61 -12.5t51 -34.5t35 -51t13 -62z" />
    <glyph glyph-name="Ydieresis" unicode="&#x178;" horiz-adv-x="1462" 
d="M1417 1434l-543 -867v-567h-286v561l-543 873h330l203 -340q19 -32 42 -72.5t45 -80.5t40 -74t28 -54q10 20 28 53.5t40 73t45 80t43 74.5l203 340h325zM1114 1663q0 -32 -13 -60t-34.5 -50t-50.5 -34.5t-60 -12.5q-33 0 -62.5 12.5t-51.5 34.5t-35 50t-13 60q0 33 13 62
t35 51t51.5 34.5t62.5 12.5q31 0 60 -12.5t50.5 -34.5t34.5 -51t13 -62zM672 1663q0 -32 -13 -60t-35 -50t-51 -34.5t-61 -12.5t-61 12.5t-51 34.5t-35 50t-13 60q0 33 13 62t35 51t51 34.5t61 12.5t61 -12.5t51 -34.5t35 -51t13 -62z" />
    <glyph glyph-name="fraction" unicode="&#x2044;" horiz-adv-x="1010" 
d="M1137 1434l-961 -1434h-303l961 1434h303z" />
    <glyph glyph-name="fraction" unicode="&#x2215;" horiz-adv-x="1010" 
d="M1137 1434l-961 -1434h-303l961 1434h303z" />
    <glyph glyph-name="Euro" unicode="&#x20ac;" horiz-adv-x="1307" 
d="M416 963h415v-189h-446q-2 -14 -2 -29v-30v-30t2 -28h446v-188h-415q40 -116 115 -168.5t176 -52.5q52 0 92 12t73.5 37t63 62t61.5 87l234 -139q-39 -65 -87 -125t-111.5 -105.5t-144.5 -72.5t-186 -27q-144 0 -256 54t-188.5 151.5t-116 234t-39.5 300.5
q0 174 43.5 311.5t123 232.5t191 145t247.5 50q106 0 184 -23.5t137 -69.5t103.5 -113.5t82.5 -155.5l-241 -117q-26 51 -51 90.5t-56 65.5t-70.5 39.5t-93.5 13.5q-98 0 -173 -52.5t-113 -170.5z" />
    <glyph glyph-name="guilsinglleft" unicode="&#x2039;" horiz-adv-x="770" 
d="M688 0h-293l-334 537l334 538h293l-323 -536z" />
    <glyph glyph-name="guilsinglright" unicode="&#x203a;" horiz-adv-x="770" 
d="M709 539l-334 -539h-293l324 537l-324 538h293z" />
    <glyph glyph-name="fi" unicode="&#xfb01;" horiz-adv-x="1321" 
d="M1194 1325q0 -33 -13 -62.5t-35 -51.5t-51.5 -35t-62.5 -13t-62.5 13t-51.5 35t-35 51.5t-13 62.5t13 62.5t35 51.5t51.5 35t62.5 13t62.5 -13t51.5 -35t35 -51.5t13 -62.5zM692 1229q-21 11 -44 16.5t-54 5.5q-63 0 -84 -20.5t-21 -65.5v-90h183v-266h-183v-809h-282
v809h-129v266h129v129q0 75 20.5 129t59.5 88t96 50t131 16q106 0 178 -31v-227zM1174 0h-283v1075h283v-1075z" />
    <glyph glyph-name="fl" unicode="&#xfb02;" horiz-adv-x="1321" 
d="M1174 0h-283v1352l283 141v-1493zM692 1229q-21 11 -44 16.5t-54 5.5q-63 0 -84 -20.5t-21 -65.5v-90h183v-266h-183v-809h-282v809h-129v266h129v129q0 75 20.5 129t59.5 88t96 50t131 16q106 0 178 -31v-227z" />
    <glyph glyph-name="daggerdbl" unicode="&#x2021;" horiz-adv-x="1217" 
d="M1104 223h-361v-428h-270v428h-360v252h360v279h-360v252h360v428h270v-428h361v-252h-361v-279h361v-252z" />
    <glyph glyph-name="periodcentered" unicode="&#xb7;" horiz-adv-x="557" 
d="M471 752q0 -39 -15.5 -74.5t-41.5 -61.5t-61 -41.5t-74 -15.5t-74.5 15.5t-61.5 41.5t-41.5 61.5t-15.5 74.5t15.5 74t41.5 61t61.5 41.5t74.5 15.5t74 -15.5t61 -41.5t41.5 -61t15.5 -74z" />
    <glyph glyph-name="periodcentered" unicode="&#x2219;" horiz-adv-x="557" 
d="M471 752q0 -39 -15.5 -74.5t-41.5 -61.5t-61 -41.5t-74 -15.5t-74.5 15.5t-61.5 41.5t-41.5 61.5t-15.5 74.5t15.5 74t41.5 61t61.5 41.5t74.5 15.5t74 -15.5t61 -41.5t41.5 -61t15.5 -74z" />
    <glyph glyph-name="quotesinglbase" unicode="&#x201a;" horiz-adv-x="575" 
d="M487 346l-168 -575h-194l29 575h333z" />
    <glyph glyph-name="quotedblbase" unicode="&#x201e;" horiz-adv-x="1110" 
d="M1022 346l-168 -575h-195l29 575h334zM487 346l-168 -575h-194l29 575h333z" />
    <glyph glyph-name="perthousand" unicode="&#x2030;" horiz-adv-x="2898" 
d="M834 1012q0 -102 -28.5 -185t-79.5 -141t-121 -89.5t-152 -31.5q-83 0 -151.5 31t-118.5 88.5t-77.5 139.5t-27.5 184q0 103 27.5 186t78 141.5t120 89.5t153.5 31q85 0 154.5 -31t119 -89t76.5 -140t27 -184zM1585 1434l-878 -1434h-248l878 1434h248zM2836 424
q0 -102 -28.5 -184.5t-79.5 -141t-120.5 -90t-151.5 -31.5q-83 0 -151.5 31t-118.5 88.5t-77.5 139.5t-27.5 184q0 103 27.5 186t78 141.5t120 89.5t153.5 31q85 0 154.5 -31t118.5 -89t76 -140t27 -184zM1968 424q0 -102 -28.5 -184.5t-79.5 -141t-121 -90t-152 -31.5
t-151 31t-118.5 88.5t-77.5 139.5t-28 184q0 103 28 186t78 141.5t119.5 89.5t153.5 31q85 0 155 -31t119 -89t76 -140t27 -184zM604 1008q0 128 -37.5 193t-111.5 65q-148 0 -148 -254q0 -128 37.5 -193t112.5 -65q73 0 110 68.5t37 185.5zM2607 420q0 128 -37.5 193
t-111.5 65q-148 0 -148 -254q0 -128 37.5 -193t112.5 -65q73 0 110 68.5t37 185.5zM1739 420q0 128 -37.5 193t-112.5 65q-147 0 -147 -254q0 -128 37.5 -193t111.5 -65t111 68.5t37 185.5z" />
    <glyph glyph-name="Acircumflex" unicode="&#xc2;" horiz-adv-x="1536" 
d="M1454 0h-315l-113 319h-524l-113 -319h-307l549 1434h278zM928 592l-92 260q-22 63 -41.5 123t-30.5 100q-11 -40 -30.5 -100t-41.5 -123l-92 -260h328zM1159 1526h-190l-205 153l-205 -153h-186l250 327h286z" />
    <glyph glyph-name="Ecircumflex" unicode="&#xca;" horiz-adv-x="1331" 
d="M1210 0h-1026v1434h996v-281h-709v-248h412v-278h-412v-346h739v-281zM1081 1526h-190l-205 153l-205 -153h-186l250 327h286z" />
    <glyph glyph-name="Aacute" unicode="&#xc1;" horiz-adv-x="1536" 
d="M1454 0h-315l-113 319h-524l-113 -319h-307l549 1434h278zM928 592l-92 260q-22 63 -41.5 123t-30.5 100q-11 -40 -30.5 -100t-41.5 -123l-92 -260h328zM1136 1853l-297 -327h-239l178 327h358z" />
    <glyph glyph-name="Edieresis" unicode="&#xcb;" horiz-adv-x="1331" 
d="M1210 0h-1026v1434h996v-281h-709v-248h412v-278h-412v-346h739v-281zM1069 1683q0 -32 -13 -60t-34.5 -50t-50.5 -34.5t-60 -12.5q-33 0 -62.5 12.5t-51.5 34.5t-35 50t-13 60q0 33 13 62t35 51t51.5 34.5t62.5 12.5q31 0 60 -12.5t50.5 -34.5t34.5 -51t13 -62z
M627 1683q0 -32 -13 -60t-35 -50t-51 -34.5t-61 -12.5t-61 12.5t-51 34.5t-35 50t-13 60q0 33 13 62t35 51t51 34.5t61 12.5t61 -12.5t51 -34.5t35 -51t13 -62z" />
    <glyph glyph-name="Egrave" unicode="&#xc8;" horiz-adv-x="1331" 
d="M1210 0h-1026v1434h996v-281h-709v-248h412v-278h-412v-346h739v-281zM837 1526h-239l-297 327h358z" />
    <glyph glyph-name="Iacute" unicode="&#xcd;" horiz-adv-x="696" 
d="M492 0h-287v1434h287v-1434zM740 1853l-297 -327h-239l178 327h358z" />
    <glyph glyph-name="Icircumflex" unicode="&#xce;" horiz-adv-x="696" 
d="M492 0h-287v1434h287v-1434zM742 1506h-190l-205 153l-205 -153h-186l250 327h286z" />
    <glyph glyph-name="Idieresis" unicode="&#xcf;" horiz-adv-x="696" 
d="M492 0h-287v1434h287v-1434zM730 1673q0 -32 -13 -60t-34.5 -50t-50.5 -34.5t-60 -12.5q-33 0 -62.5 12.5t-51.5 34.5t-35 50t-13 60q0 33 13 62t35 51t51.5 34.5t62.5 12.5q31 0 60 -12.5t50.5 -34.5t34.5 -51t13 -62zM288 1673q0 -32 -13 -60t-35 -50t-51 -34.5
t-61 -12.5t-61 12.5t-51 34.5t-35 50t-13 60q0 33 13 62t35 51t51 34.5t61 12.5t61 -12.5t51 -34.5t35 -51t13 -62z" />
    <glyph glyph-name="Igrave" unicode="&#xcc;" horiz-adv-x="696" 
d="M492 0h-287v1434h287v-1434zM478 1526h-239l-297 327h358z" />
    <glyph glyph-name="Oacute" unicode="&#xd3;" horiz-adv-x="1473" 
d="M1368 719q0 -174 -46.5 -311.5t-130 -233t-200 -146.5t-256.5 -51q-141 0 -257 50t-199 145t-129 232t-46 311t46.5 311.5t130.5 233t201 146t257 50.5t255.5 -50t198.5 -145t129 -231.5t46 -310.5zM1073 715q0 109 -25 194t-70 143t-107.5 88.5t-137.5 30.5t-137 -29.5
t-105.5 -87t-67.5 -142t-24 -193.5t25 -194t70 -143.5t107.5 -89t137.5 -30.5t137 30t105.5 87.5t67.5 142t24 193.5zM1098 1853l-297 -327h-239l178 327h358z" />
    <glyph glyph-name="Ocircumflex" unicode="&#xd4;" horiz-adv-x="1473" 
d="M1368 719q0 -174 -46.5 -311.5t-130 -233t-200 -146.5t-256.5 -51q-141 0 -257 50t-199 145t-129 232t-46 311t46.5 311.5t130.5 233t201 146t257 50.5t255.5 -50t198.5 -145t129 -231.5t46 -310.5zM1073 715q0 109 -25 194t-70 143t-107.5 88.5t-137.5 30.5t-137 -29.5
t-105.5 -87t-67.5 -142t-24 -193.5t25 -194t70 -143.5t107.5 -89t137.5 -30.5t137 30t105.5 87.5t67.5 142t24 193.5zM1120 1516h-190l-205 153l-205 -153h-186l250 327h286z" />
    <glyph glyph-name="apple" 
d="M1597 717l-344 -271q-18 -9 -33.5 -9t-23.5 5q-20 13 -25.5 29.5t0.5 44.5l41 92h-288v-254l98 39q23 10 39 4t29 -26q5 -8 6 -24.5t-13 -33.5l-264 -344l-270 344q-9 17 -9 33.5t5 24.5q12 18 28.5 24t42.5 -2l95 -39v254h-285l41 -94q14 -47 -25 -72q-8 -5 -23 -5
t-32 9l-346 271l346 264q17 14 32 12.5t23 -6.5q22 -12 26.5 -28t-1.5 -39l-41 -99h285v258l-95 -39q-24 -11 -41.5 -3.5t-29.5 26.5q-5 8 -5 24t9 33l270 344l264 -344q14 -17 13 -33t-6 -24q-13 -20 -29 -26t-39 3l-98 39v-258h288l-41 99q-6 23 -1.5 39t26.5 28
q8 5 22.5 5.5t34.5 -11.5z" />
    <glyph glyph-name="Ograve" unicode="&#xd2;" horiz-adv-x="1473" 
d="M1368 719q0 -174 -46.5 -311.5t-130 -233t-200 -146.5t-256.5 -51q-141 0 -257 50t-199 145t-129 232t-46 311t46.5 311.5t130.5 233t201 146t257 50.5t255.5 -50t198.5 -145t129 -231.5t46 -310.5zM1073 715q0 109 -25 194t-70 143t-107.5 88.5t-137.5 30.5t-137 -29.5
t-105.5 -87t-67.5 -142t-24 -193.5t25 -194t70 -143.5t107.5 -89t137.5 -30.5t137 30t105.5 87.5t67.5 142t24 193.5zM876 1526h-239l-297 327h358z" />
    <glyph glyph-name="Uacute" unicode="&#xda;" horiz-adv-x="1509" 
d="M1335 633q0 -156 -39.5 -278t-114.5 -206t-183 -128t-244 -44q-130 0 -236.5 43t-183 126t-118.5 204.5t-42 278.5v805h287v-801q0 -86 20 -155.5t58 -118.5t92 -75t123 -26q68 0 122.5 25.5t93 73.5t59 117t20.5 155v805h286v-801zM1128 1822l-297 -327h-239l178 327
h358z" />
    <glyph glyph-name="Ucircumflex" unicode="&#xdb;" horiz-adv-x="1509" 
d="M1335 633q0 -156 -39.5 -278t-114.5 -206t-183 -128t-244 -44q-130 0 -236.5 43t-183 126t-118.5 204.5t-42 278.5v805h287v-801q0 -86 20 -155.5t58 -118.5t92 -75t123 -26q68 0 122.5 25.5t93 73.5t59 117t20.5 155v805h286v-801zM1151 1526h-190l-205 153l-205 -153
h-186l250 327h286z" />
    <glyph glyph-name="Ugrave" unicode="&#xd9;" horiz-adv-x="1509" 
d="M1335 633q0 -156 -39.5 -278t-114.5 -206t-183 -128t-244 -44q-130 0 -236.5 43t-183 126t-118.5 204.5t-42 278.5v805h287v-801q0 -86 20 -155.5t58 -118.5t92 -75t123 -26q68 0 122.5 25.5t93 73.5t59 117t20.5 155v805h286v-801zM907 1495h-239l-297 327h358z" />
    <glyph glyph-name="dotlessi" unicode="&#x131;" horiz-adv-x="578" 
d="M430 0h-283v1075h283v-1075z" />
    <glyph glyph-name="circumflex" unicode="&#x2c6;" horiz-adv-x="1024" 
d="M905 1219h-190l-205 153l-205 -153h-186l250 327h286z" />
    <glyph glyph-name="tilde" unicode="&#x2dc;" horiz-adv-x="1024" 
d="M920 1507q0 -68 -17.5 -123t-48.5 -93t-74.5 -58.5t-95.5 -20.5q-32 0 -57 3.5t-48 11t-47 19.5t-55 30q-23 13 -38.5 21t-27.5 12.5t-21 6t-19 1.5q-29 0 -45 -22t-25 -76h-184q0 68 17 122.5t48 92.5t74.5 58.5t95.5 20.5q32 0 57 -3t48 -10.5t47 -19.5t55 -30
q23 -13 39 -21t27.5 -12.5t21 -6t19.5 -1.5q29 0 44.5 22t24.5 76h185z" />
    <glyph glyph-name="macron" unicode="&#xaf;" horiz-adv-x="1024" 
d="M809 1249h-594v215h594v-215z" />
    <glyph glyph-name="macron" unicode="&#x2c9;" horiz-adv-x="1024" 
d="M809 1249h-594v215h594v-215z" />
    <glyph glyph-name="breve" unicode="&#x2d8;" horiz-adv-x="1024" 
d="M895 1546q-11 -78 -42.5 -138.5t-81 -102.5t-115.5 -64t-146 -22q-164 0 -261.5 85.5t-119.5 241.5h172q20 -68 71 -100.5t142 -32.5q48 0 84 8t61.5 24.5t42.5 41.5t27 59h166z" />
    <glyph glyph-name="dotaccent" unicode="&#x2d9;" horiz-adv-x="1024" 
d="M670 1376q0 -32 -13 -60t-34.5 -50t-50.5 -34.5t-60 -12.5q-33 0 -62.5 12.5t-51.5 34.5t-35 50t-13 60q0 33 13 62t35 51t51.5 34.5t62.5 12.5q31 0 60 -12.5t50.5 -34.5t34.5 -51t13 -62z" />
    <glyph glyph-name="ring" unicode="&#x2da;" horiz-adv-x="1024" 
d="M788 1491q0 -59 -21 -109t-58 -86t-87.5 -56.5t-109.5 -20.5t-109.5 20.5t-87.5 56.5t-58 86t-21 109t21 109.5t58 87.5t87.5 58t109.5 21t109.5 -21t87.5 -58t58 -87.5t21 -109.5zM633 1491q0 26 -9.5 48.5t-25.5 39t-38.5 26t-47.5 9.5q-26 0 -48 -9.5t-38 -26
t-25.5 -39t-9.5 -48.5t9.5 -48.5t25.5 -39t38 -26t48 -9.5q25 0 47.5 9.5t38.5 26t25.5 39t9.5 48.5z" />
    <glyph glyph-name="cedilla" unicode="&#xb8;" horiz-adv-x="1024" 
d="M772 -217q0 -46 -17.5 -79.5t-49.5 -55.5t-77 -32.5t-100 -10.5q-83 0 -150.5 21.5t-117.5 51.5l43 78q47 -24 94.5 -36.5t87.5 -12.5q54 0 82.5 17.5t28.5 52.5q0 31 -19.5 42t-44.5 11q-20 0 -32.5 -3t-28.5 -11l-74 28l56 232h114l-35 -162q13 6 32 10t48 4
q33 0 62 -8.5t51 -26.5t34.5 -45.5t12.5 -64.5z" />
    <glyph glyph-name="hungarumlaut" unicode="&#x2dd;" horiz-adv-x="1024" 
d="M1053 1546l-297 -327h-240l178 327h359zM602 1546l-297 -327h-239l178 327h358z" />
    <glyph glyph-name="ogonek" unicode="&#x2db;" horiz-adv-x="1024" 
d="M776 -299q-57 -43 -120.5 -69.5t-137.5 -26.5q-100 0 -152.5 43t-52.5 127q0 68 42.5 122.5t113.5 102.5h123q-32 -37 -52.5 -64.5t-32 -50.5t-16 -44t-4.5 -44q0 -29 21.5 -46t50.5 -17q43 0 81 12t83 37z" />
    <glyph glyph-name="caron" unicode="&#x2c7;" horiz-adv-x="1024" 
d="M905 1546l-250 -327h-286l-250 327h190l205 -153l205 153h186z" />
    <glyph glyph-name="Eth" unicode="&#xd0;" horiz-adv-x="1479" 
d="M1376 717q0 -126 -28.5 -228t-79.5 -182t-120.5 -137.5t-150.5 -95.5t-171.5 -56t-182.5 -18h-428v631h-133v235h133v568h449q153 0 283.5 -38.5t226 -123.5t149 -222t53.5 -333zM1081 717q0 110 -24.5 192t-76 137t-132.5 82t-195 27h-159v-289h192v-235h-192v-352h149
q113 0 195.5 31.5t136.5 89t80 138.5t26 179z" />
    <glyph glyph-name="eth" unicode="&#xf0;" horiz-adv-x="1137" 
d="M1055 578q0 -154 -36.5 -267t-102 -187.5t-155 -110.5t-194.5 -36t-194 36t-153.5 101.5t-101 157.5t-36.5 203t35.5 203t96 158t141.5 102.5t171 36.5q78 0 138.5 -20t115.5 -58q-15 69 -49 125.5t-84 101.5l-96 -94l-131 117l74 72q-42 17 -86.5 28t-92.5 15v194
q99 -3 182 -24t154 -58l84 82l131 -117l-69 -67q67 -62 116 -140.5t80.5 -168t46.5 -187.5t15 -198zM778 475q0 55 -13 101t-39.5 79.5t-66 52.5t-92.5 19t-92 -18.5t-65 -52t-39 -80t-13 -101.5t13 -100.5t39 -78.5t65 -51t92 -18t92.5 20t66 54t39.5 79t13 95z" />
    </font>
</defs>
</svg>
